<svg width="103" height="18" viewBox="0 0 104 20" fill="none" xmlns="http://www.w3.org/2000/svg">
<mask id="path-1-outside-1_1335_1976" maskUnits="userSpaceOnUse" x="0.166687" y="-0.5" width="104" height="20" fill="black">
<rect fill="white" x="0.166687" y="-0.5" width="104" height="20"/>
<path d="M1.16669 16.0208H2.23067L9.21427 1.5L16.1979 16.0208H17.1264V18.5H16.5267V16.5914H1.7277V18.5H1.16669V16.0208ZM15.5401 16.0208L9.15623 2.85764L2.83037 16.0208H15.5401Z"/>
<path d="M22.4523 16.2766C23.1229 16.2766 23.7613 16.0995 24.3675 15.7454C24.9736 15.3912 25.4766 14.9059 25.8764 14.2894V15.2928C25.3992 15.8306 24.8769 16.2242 24.3094 16.4734C23.742 16.7095 23.0971 16.8275 22.3749 16.8275C21.5753 16.8275 20.8209 16.6111 20.1115 16.1782C19.4151 15.7454 18.8541 15.1682 18.4285 14.4468C18.0158 13.7253 17.8095 12.9579 17.8095 12.1447C17.8095 11.2658 18.0158 10.4788 18.4285 9.78356C18.8412 9.07523 19.4022 8.52431 20.1115 8.13079C20.8338 7.73727 21.6334 7.54051 22.5103 7.54051C23.8516 7.54051 24.993 8.07832 25.9344 9.15393L19.86 15.2535C20.2856 15.6076 20.6983 15.87 21.0981 16.0405C21.4979 16.1979 21.9493 16.2766 22.4523 16.2766ZM18.4285 12.0856C18.4285 13.1744 18.7832 14.1057 19.4925 14.8796L25.1606 9.15393C24.735 8.77353 24.3223 8.50463 23.9225 8.34722C23.5227 8.1767 23.0455 8.09144 22.491 8.09144C21.7043 8.09144 21.0014 8.26852 20.3824 8.62268C19.7762 8.96373 19.299 9.43596 18.9508 10.0394C18.6026 10.6427 18.4285 11.3248 18.4285 12.0856Z"/>
<path d="M35.6175 16.5914L31.9807 8.89815L28.3438 16.5914H27.7247L32 7.48148L36.2946 16.5914H35.6175Z"/>
<path d="M39.028 7.73727H39.6471V10.787H40.595C41.4977 10.787 42.1942 11.0428 42.6842 11.5544C43.1743 12.0529 43.4194 12.7677 43.4194 13.6991C43.4194 14.2238 43.2904 14.7091 43.0325 15.1551C42.7745 15.6011 42.4263 15.9552 41.9878 16.2176C41.5493 16.4668 41.0657 16.5914 40.5369 16.5914H39.028V7.73727ZM40.5563 16.0602C41.1882 16.0602 41.7234 15.8306 42.1619 15.3715C42.6004 14.9124 42.8197 14.3549 42.8197 13.6991C42.8197 12.9383 42.6198 12.3546 42.22 11.9479C41.8331 11.5282 41.2785 11.3183 40.5563 11.3183H39.6471V16.0602H40.5563Z"/>
<path d="M47.4237 8.30787H44.0963V7.75694H51.3701V8.30787H48.0427V16.5914H47.4237V8.30787Z"/>
<path d="M57.5653 16.8079C56.74 16.8079 55.9726 16.598 55.2633 16.1782C54.5539 15.7585 53.9929 15.1944 53.5802 14.4861C53.1675 13.7647 52.9612 12.9907 52.9612 12.1644C52.9612 11.338 53.1675 10.5706 53.5802 9.86227C53.9929 9.14082 54.5539 8.57022 55.2633 8.15046C55.9726 7.73071 56.74 7.52083 57.5653 7.52083C58.4036 7.52083 59.1968 7.75039 59.9448 8.20949C60.6928 8.65548 61.2151 9.2392 61.5118 9.96065V7.73727H62.1308V16.5914H61.5118V14.3877C61.1635 15.1223 60.6219 15.7126 59.8868 16.1586C59.1645 16.5914 58.3907 16.8079 57.5653 16.8079ZM57.604 16.2569C58.3134 16.2569 58.9711 16.0733 59.5772 15.706C60.1834 15.3256 60.6606 14.8272 61.0088 14.2106C61.3699 13.581 61.5504 12.8989 61.5504 12.1644C61.5504 11.4429 61.3699 10.7674 61.0088 10.1377C60.6477 9.5081 60.164 9.00964 59.5579 8.64236C58.9517 8.26196 58.294 8.07176 57.5847 8.07176C56.8754 8.07176 56.2112 8.26196 55.5921 8.64236C54.986 9.02276 54.4959 9.52778 54.1219 10.1574C53.7608 10.787 53.5802 11.4626 53.5802 12.184C53.5802 12.9055 53.7608 13.581 54.1219 14.2106C54.4959 14.8272 54.9924 15.3256 55.6115 15.706C56.2305 16.0733 56.8947 16.2569 57.604 16.2569Z"/>
<path d="M80.3388 1.83449V16.5914H79.7004V2.77894L72.8522 16.8669L66.0427 2.60185V16.5914H65.4044V1.83449H66.3136L72.8522 15.5289L79.4489 1.83449H80.3388Z"/>
<path d="M87.8014 16.9063C86.9244 16.9063 86.1312 16.6898 85.4219 16.2569C84.7126 15.811 84.158 15.2272 83.7582 14.5058C83.3584 13.7712 83.1585 12.9776 83.1585 12.125C83.1585 11.2855 83.3584 10.505 83.7582 9.78356C84.1709 9.06211 84.7255 8.49151 85.4219 8.07176C86.1312 7.63889 86.9179 7.42245 87.782 7.42245C88.6332 7.42245 89.407 7.63889 90.1034 8.07176C90.8127 8.49151 91.3673 9.06211 91.7671 9.78356C92.1669 10.505 92.3668 11.2855 92.3668 12.125C92.3668 13.0039 92.1734 13.8106 91.7865 14.5451C91.3996 15.2666 90.8579 15.8438 90.1615 16.2766C89.4779 16.6964 88.6912 16.9063 87.8014 16.9063ZM87.8014 16.3553C88.5365 16.3553 89.2071 16.1651 89.8132 15.7847C90.4194 15.4043 90.8901 14.8993 91.2254 14.2697C91.5737 13.6269 91.7478 12.9252 91.7478 12.1644C91.7478 11.4167 91.5737 10.7214 91.2254 10.0787C90.8772 9.43596 90.4 8.92438 89.7939 8.54398C89.1878 8.16358 88.5171 7.97338 87.782 7.97338C87.0469 7.97338 86.3698 8.17014 85.7508 8.56366C85.1446 8.94406 84.661 9.45563 84.2999 10.0984C83.9517 10.7411 83.7776 11.4363 83.7776 12.184C83.7776 12.9317 83.9517 13.6269 84.2999 14.2697C84.661 14.8993 85.1446 15.4043 85.7508 15.7847C86.3698 16.1651 87.0533 16.3553 87.8014 16.3553Z"/>
<path d="M103.167 16.0208V18.5H102.625V16.5914H94.2679V18.5H93.7263V16.0405H94.442L98.4852 7.48148L102.528 16.0208H103.167ZM101.909 16.0208L98.4852 8.78009L95.0611 16.0208H101.909Z"/>
</mask>
<path d="M1.16669 16.0208H2.23067L9.21427 1.5L16.1979 16.0208H17.1264V18.5H16.5267V16.5914H1.7277V18.5H1.16669V16.0208ZM15.5401 16.0208L9.15623 2.85764L2.83037 16.0208H15.5401Z" fill="#B8D5EE"/>
<path d="M22.4523 16.2766C23.1229 16.2766 23.7613 16.0995 24.3675 15.7454C24.9736 15.3912 25.4766 14.9059 25.8764 14.2894V15.2928C25.3992 15.8306 24.8769 16.2242 24.3094 16.4734C23.742 16.7095 23.0971 16.8275 22.3749 16.8275C21.5753 16.8275 20.8209 16.6111 20.1115 16.1782C19.4151 15.7454 18.8541 15.1682 18.4285 14.4468C18.0158 13.7253 17.8095 12.9579 17.8095 12.1447C17.8095 11.2658 18.0158 10.4788 18.4285 9.78356C18.8412 9.07523 19.4022 8.52431 20.1115 8.13079C20.8338 7.73727 21.6334 7.54051 22.5103 7.54051C23.8516 7.54051 24.993 8.07832 25.9344 9.15393L19.86 15.2535C20.2856 15.6076 20.6983 15.87 21.0981 16.0405C21.4979 16.1979 21.9493 16.2766 22.4523 16.2766ZM18.4285 12.0856C18.4285 13.1744 18.7832 14.1057 19.4925 14.8796L25.1606 9.15393C24.735 8.77353 24.3223 8.50463 23.9225 8.34722C23.5227 8.1767 23.0455 8.09144 22.491 8.09144C21.7043 8.09144 21.0014 8.26852 20.3824 8.62268C19.7762 8.96373 19.299 9.43596 18.9508 10.0394C18.6026 10.6427 18.4285 11.3248 18.4285 12.0856Z" fill="#B8D5EE"/>
<path d="M35.6175 16.5914L31.9807 8.89815L28.3438 16.5914H27.7247L32 7.48148L36.2946 16.5914H35.6175Z" fill="#B8D5EE"/>
<path d="M39.028 7.73727H39.6471V10.787H40.595C41.4977 10.787 42.1942 11.0428 42.6842 11.5544C43.1743 12.0529 43.4194 12.7677 43.4194 13.6991C43.4194 14.2238 43.2904 14.7091 43.0325 15.1551C42.7745 15.6011 42.4263 15.9552 41.9878 16.2176C41.5493 16.4668 41.0657 16.5914 40.5369 16.5914H39.028V7.73727ZM40.5563 16.0602C41.1882 16.0602 41.7234 15.8306 42.1619 15.3715C42.6004 14.9124 42.8197 14.3549 42.8197 13.6991C42.8197 12.9383 42.6198 12.3546 42.22 11.9479C41.8331 11.5282 41.2785 11.3183 40.5563 11.3183H39.6471V16.0602H40.5563Z" fill="#B8D5EE"/>
<path d="M47.4237 8.30787H44.0963V7.75694H51.3701V8.30787H48.0427V16.5914H47.4237V8.30787Z" fill="#B8D5EE"/>
<path d="M57.5653 16.8079C56.74 16.8079 55.9726 16.598 55.2633 16.1782C54.5539 15.7585 53.9929 15.1944 53.5802 14.4861C53.1675 13.7647 52.9612 12.9907 52.9612 12.1644C52.9612 11.338 53.1675 10.5706 53.5802 9.86227C53.9929 9.14082 54.5539 8.57022 55.2633 8.15046C55.9726 7.73071 56.74 7.52083 57.5653 7.52083C58.4036 7.52083 59.1968 7.75039 59.9448 8.20949C60.6928 8.65548 61.2151 9.2392 61.5118 9.96065V7.73727H62.1308V16.5914H61.5118V14.3877C61.1635 15.1223 60.6219 15.7126 59.8868 16.1586C59.1645 16.5914 58.3907 16.8079 57.5653 16.8079ZM57.604 16.2569C58.3134 16.2569 58.9711 16.0733 59.5772 15.706C60.1834 15.3256 60.6606 14.8272 61.0088 14.2106C61.3699 13.581 61.5504 12.8989 61.5504 12.1644C61.5504 11.4429 61.3699 10.7674 61.0088 10.1377C60.6477 9.5081 60.164 9.00964 59.5579 8.64236C58.9517 8.26196 58.294 8.07176 57.5847 8.07176C56.8754 8.07176 56.2112 8.26196 55.5921 8.64236C54.986 9.02276 54.4959 9.52778 54.1219 10.1574C53.7608 10.787 53.5802 11.4626 53.5802 12.184C53.5802 12.9055 53.7608 13.581 54.1219 14.2106C54.4959 14.8272 54.9924 15.3256 55.6115 15.706C56.2305 16.0733 56.8947 16.2569 57.604 16.2569Z" fill="#B8D5EE"/>
<path d="M80.3388 1.83449V16.5914H79.7004V2.77894L72.8522 16.8669L66.0427 2.60185V16.5914H65.4044V1.83449H66.3136L72.8522 15.5289L79.4489 1.83449H80.3388Z" fill="#B8D5EE"/>
<path d="M87.8014 16.9063C86.9244 16.9063 86.1312 16.6898 85.4219 16.2569C84.7126 15.811 84.158 15.2272 83.7582 14.5058C83.3584 13.7712 83.1585 12.9776 83.1585 12.125C83.1585 11.2855 83.3584 10.505 83.7582 9.78356C84.1709 9.06211 84.7255 8.49151 85.4219 8.07176C86.1312 7.63889 86.9179 7.42245 87.782 7.42245C88.6332 7.42245 89.407 7.63889 90.1034 8.07176C90.8127 8.49151 91.3673 9.06211 91.7671 9.78356C92.1669 10.505 92.3668 11.2855 92.3668 12.125C92.3668 13.0039 92.1734 13.8106 91.7865 14.5451C91.3996 15.2666 90.8579 15.8438 90.1615 16.2766C89.4779 16.6964 88.6912 16.9063 87.8014 16.9063ZM87.8014 16.3553C88.5365 16.3553 89.2071 16.1651 89.8132 15.7847C90.4194 15.4043 90.8901 14.8993 91.2254 14.2697C91.5737 13.6269 91.7478 12.9252 91.7478 12.1644C91.7478 11.4167 91.5737 10.7214 91.2254 10.0787C90.8772 9.43596 90.4 8.92438 89.7939 8.54398C89.1878 8.16358 88.5171 7.97338 87.782 7.97338C87.0469 7.97338 86.3698 8.17014 85.7508 8.56366C85.1446 8.94406 84.661 9.45563 84.2999 10.0984C83.9517 10.7411 83.7776 11.4363 83.7776 12.184C83.7776 12.9317 83.9517 13.6269 84.2999 14.2697C84.661 14.8993 85.1446 15.4043 85.7508 15.7847C86.3698 16.1651 87.0533 16.3553 87.8014 16.3553Z" fill="#B8D5EE"/>
<path d="M103.167 16.0208V18.5H102.625V16.5914H94.2679V18.5H93.7263V16.0405H94.442L98.4852 7.48148L102.528 16.0208H103.167ZM101.909 16.0208L98.4852 8.78009L95.0611 16.0208H101.909Z" fill="#B8D5EE"/>
<path d="M1.16669 16.0208H2.23067L9.21427 1.5L16.1979 16.0208H17.1264V18.5H16.5267V16.5914H1.7277V18.5H1.16669V16.0208ZM15.5401 16.0208L9.15623 2.85764L2.83037 16.0208H15.5401Z" stroke="#B8D5EE" stroke-width="1.2" mask="url(#path-1-outside-1_1335_1976)"/>
<path d="M22.4523 16.2766C23.1229 16.2766 23.7613 16.0995 24.3675 15.7454C24.9736 15.3912 25.4766 14.9059 25.8764 14.2894V15.2928C25.3992 15.8306 24.8769 16.2242 24.3094 16.4734C23.742 16.7095 23.0971 16.8275 22.3749 16.8275C21.5753 16.8275 20.8209 16.6111 20.1115 16.1782C19.4151 15.7454 18.8541 15.1682 18.4285 14.4468C18.0158 13.7253 17.8095 12.9579 17.8095 12.1447C17.8095 11.2658 18.0158 10.4788 18.4285 9.78356C18.8412 9.07523 19.4022 8.52431 20.1115 8.13079C20.8338 7.73727 21.6334 7.54051 22.5103 7.54051C23.8516 7.54051 24.993 8.07832 25.9344 9.15393L19.86 15.2535C20.2856 15.6076 20.6983 15.87 21.0981 16.0405C21.4979 16.1979 21.9493 16.2766 22.4523 16.2766ZM18.4285 12.0856C18.4285 13.1744 18.7832 14.1057 19.4925 14.8796L25.1606 9.15393C24.735 8.77353 24.3223 8.50463 23.9225 8.34722C23.5227 8.1767 23.0455 8.09144 22.491 8.09144C21.7043 8.09144 21.0014 8.26852 20.3824 8.62268C19.7762 8.96373 19.299 9.43596 18.9508 10.0394C18.6026 10.6427 18.4285 11.3248 18.4285 12.0856Z" stroke="#B8D5EE" stroke-width="1.2" mask="url(#path-1-outside-1_1335_1976)"/>
<path d="M35.6175 16.5914L31.9807 8.89815L28.3438 16.5914H27.7247L32 7.48148L36.2946 16.5914H35.6175Z" stroke="#B8D5EE" stroke-width="1.2" mask="url(#path-1-outside-1_1335_1976)"/>
<path d="M39.028 7.73727H39.6471V10.787H40.595C41.4977 10.787 42.1942 11.0428 42.6842 11.5544C43.1743 12.0529 43.4194 12.7677 43.4194 13.6991C43.4194 14.2238 43.2904 14.7091 43.0325 15.1551C42.7745 15.6011 42.4263 15.9552 41.9878 16.2176C41.5493 16.4668 41.0657 16.5914 40.5369 16.5914H39.028V7.73727ZM40.5563 16.0602C41.1882 16.0602 41.7234 15.8306 42.1619 15.3715C42.6004 14.9124 42.8197 14.3549 42.8197 13.6991C42.8197 12.9383 42.6198 12.3546 42.22 11.9479C41.8331 11.5282 41.2785 11.3183 40.5563 11.3183H39.6471V16.0602H40.5563Z" stroke="#B8D5EE" stroke-width="1.2" mask="url(#path-1-outside-1_1335_1976)"/>
<path d="M47.4237 8.30787H44.0963V7.75694H51.3701V8.30787H48.0427V16.5914H47.4237V8.30787Z" stroke="#B8D5EE" stroke-width="1.2" mask="url(#path-1-outside-1_1335_1976)"/>
<path d="M57.5653 16.8079C56.74 16.8079 55.9726 16.598 55.2633 16.1782C54.5539 15.7585 53.9929 15.1944 53.5802 14.4861C53.1675 13.7647 52.9612 12.9907 52.9612 12.1644C52.9612 11.338 53.1675 10.5706 53.5802 9.86227C53.9929 9.14082 54.5539 8.57022 55.2633 8.15046C55.9726 7.73071 56.74 7.52083 57.5653 7.52083C58.4036 7.52083 59.1968 7.75039 59.9448 8.20949C60.6928 8.65548 61.2151 9.2392 61.5118 9.96065V7.73727H62.1308V16.5914H61.5118V14.3877C61.1635 15.1223 60.6219 15.7126 59.8868 16.1586C59.1645 16.5914 58.3907 16.8079 57.5653 16.8079ZM57.604 16.2569C58.3134 16.2569 58.9711 16.0733 59.5772 15.706C60.1834 15.3256 60.6606 14.8272 61.0088 14.2106C61.3699 13.581 61.5504 12.8989 61.5504 12.1644C61.5504 11.4429 61.3699 10.7674 61.0088 10.1377C60.6477 9.5081 60.164 9.00964 59.5579 8.64236C58.9517 8.26196 58.294 8.07176 57.5847 8.07176C56.8754 8.07176 56.2112 8.26196 55.5921 8.64236C54.986 9.02276 54.4959 9.52778 54.1219 10.1574C53.7608 10.787 53.5802 11.4626 53.5802 12.184C53.5802 12.9055 53.7608 13.581 54.1219 14.2106C54.4959 14.8272 54.9924 15.3256 55.6115 15.706C56.2305 16.0733 56.8947 16.2569 57.604 16.2569Z" stroke="#B8D5EE" stroke-width="1.2" mask="url(#path-1-outside-1_1335_1976)"/>
<path d="M80.3388 1.83449V16.5914H79.7004V2.77894L72.8522 16.8669L66.0427 2.60185V16.5914H65.4044V1.83449H66.3136L72.8522 15.5289L79.4489 1.83449H80.3388Z" stroke="#B8D5EE" stroke-width="1.2" mask="url(#path-1-outside-1_1335_1976)"/>
<path d="M87.8014 16.9063C86.9244 16.9063 86.1312 16.6898 85.4219 16.2569C84.7126 15.811 84.158 15.2272 83.7582 14.5058C83.3584 13.7712 83.1585 12.9776 83.1585 12.125C83.1585 11.2855 83.3584 10.505 83.7582 9.78356C84.1709 9.06211 84.7255 8.49151 85.4219 8.07176C86.1312 7.63889 86.9179 7.42245 87.782 7.42245C88.6332 7.42245 89.407 7.63889 90.1034 8.07176C90.8127 8.49151 91.3673 9.06211 91.7671 9.78356C92.1669 10.505 92.3668 11.2855 92.3668 12.125C92.3668 13.0039 92.1734 13.8106 91.7865 14.5451C91.3996 15.2666 90.8579 15.8438 90.1615 16.2766C89.4779 16.6964 88.6912 16.9063 87.8014 16.9063ZM87.8014 16.3553C88.5365 16.3553 89.2071 16.1651 89.8132 15.7847C90.4194 15.4043 90.8901 14.8993 91.2254 14.2697C91.5737 13.6269 91.7478 12.9252 91.7478 12.1644C91.7478 11.4167 91.5737 10.7214 91.2254 10.0787C90.8772 9.43596 90.4 8.92438 89.7939 8.54398C89.1878 8.16358 88.5171 7.97338 87.782 7.97338C87.0469 7.97338 86.3698 8.17014 85.7508 8.56366C85.1446 8.94406 84.661 9.45563 84.2999 10.0984C83.9517 10.7411 83.7776 11.4363 83.7776 12.184C83.7776 12.9317 83.9517 13.6269 84.2999 14.2697C84.661 14.8993 85.1446 15.4043 85.7508 15.7847C86.3698 16.1651 87.0533 16.3553 87.8014 16.3553Z" stroke="#B8D5EE" stroke-width="1.2" mask="url(#path-1-outside-1_1335_1976)"/>
<path d="M103.167 16.0208V18.5H102.625V16.5914H94.2679V18.5H93.7263V16.0405H94.442L98.4852 7.48148L102.528 16.0208H103.167ZM101.909 16.0208L98.4852 8.78009L95.0611 16.0208H101.909Z" stroke="#B8D5EE" stroke-width="1.2" mask="url(#path-1-outside-1_1335_1976)"/>
</svg>
