<svg width="103" height="18" viewBox="0 0 104 20" fill="none" xmlns="http://www.w3.org/2000/svg">
<mask id="path-1-outside-1_1335_1959" maskUnits="userSpaceOnUse" x="0.166687" y="-0.204559" width="104" height="20" fill="black">
<rect fill="white" x="0.166687" y="-0.204559" width="104" height="20"/>
<path d="M1.16669 16.3163H2.23067L9.21427 1.79544L16.1979 16.3163H17.1264V18.7954H16.5267V16.8869H1.7277V18.7954H1.16669V16.3163ZM15.5401 16.3163L9.15623 3.15308L2.83037 16.3163H15.5401Z"/>
<path d="M22.4523 16.5721C23.1229 16.5721 23.7613 16.395 24.3675 16.0408C24.9736 15.6866 25.4766 15.2013 25.8764 14.5848V15.5883C25.3992 16.1261 24.8769 16.5196 24.3094 16.7688C23.742 17.0049 23.0971 17.123 22.3749 17.123C21.5753 17.123 20.8209 16.9066 20.1115 16.4737C19.4151 16.0408 18.8541 15.4637 18.4285 14.7422C18.0158 14.0207 17.8095 13.2534 17.8095 12.4401C17.8095 11.5613 18.0158 10.7742 18.4285 10.079C18.8412 9.37067 19.4022 8.81975 20.1115 8.42623C20.8338 8.03271 21.6334 7.83595 22.5103 7.83595C23.8516 7.83595 24.993 8.37376 25.9344 9.44938L19.86 15.5489C20.2856 15.9031 20.6983 16.1654 21.0981 16.3359C21.4979 16.4934 21.9493 16.5721 22.4523 16.5721ZM18.4285 12.3811C18.4285 13.4698 18.7832 14.4011 19.4925 15.1751L25.1606 9.44938C24.735 9.06897 24.3223 8.80007 23.9225 8.64266C23.5227 8.47214 23.0455 8.38688 22.491 8.38688C21.7043 8.38688 21.0014 8.56396 20.3824 8.91813C19.7762 9.25918 19.299 9.7314 18.9508 10.3348C18.6026 10.9382 18.4285 11.6203 18.4285 12.3811Z"/>
<path d="M35.6175 16.8869L31.9807 9.19359L28.3438 16.8869H27.7247L32 7.77692L36.2946 16.8869H35.6175Z"/>
<path d="M39.028 8.03271H39.6471V11.0825H40.595C41.4977 11.0825 42.1942 11.3383 42.6842 11.8498C43.1743 12.3483 43.4194 13.0632 43.4194 13.9945C43.4194 14.5192 43.2904 15.0045 43.0325 15.4505C42.7745 15.8965 42.4263 16.2507 41.9878 16.513C41.5493 16.7623 41.0657 16.8869 40.5369 16.8869H39.028V8.03271ZM40.5563 16.3556C41.1882 16.3556 41.7234 16.1261 42.1619 15.667C42.6004 15.2079 42.8197 14.6504 42.8197 13.9945C42.8197 13.2337 42.6198 12.65 42.22 12.2434C41.8331 11.8236 41.2785 11.6137 40.5563 11.6137H39.6471V16.3556H40.5563Z"/>
<path d="M47.4237 8.60331H44.0963V8.05238H51.3701V8.60331H48.0427V16.8869H47.4237V8.60331Z"/>
<path d="M57.5653 17.1033C56.74 17.1033 55.9726 16.8934 55.2633 16.4737C54.5539 16.0539 53.9929 15.4899 53.5802 14.7816C53.1675 14.0601 52.9612 13.2862 52.9612 12.4598C52.9612 11.6334 53.1675 10.866 53.5802 10.1577C53.9929 9.43626 54.5539 8.86566 55.2633 8.4459C55.9726 8.02615 56.74 7.81627 57.5653 7.81627C58.4036 7.81627 59.1968 8.04583 59.9448 8.50493C60.6928 8.95092 61.2151 9.53464 61.5118 10.2561V8.03271H62.1308V16.8869H61.5118V14.6832C61.1635 15.4177 60.6219 16.008 59.8868 16.454C59.1645 16.8869 58.3907 17.1033 57.5653 17.1033ZM57.604 16.5524C58.3134 16.5524 58.9711 16.3687 59.5772 16.0015C60.1834 15.6211 60.6606 15.1226 61.0088 14.5061C61.3699 13.8765 61.5504 13.1944 61.5504 12.4598C61.5504 11.7383 61.3699 11.0628 61.0088 10.4332C60.6477 9.80354 60.164 9.30509 59.5579 8.9378C58.9517 8.5574 58.294 8.3672 57.5847 8.3672C56.8754 8.3672 56.2112 8.5574 55.5921 8.9378C54.986 9.3182 54.4959 9.82322 54.1219 10.4528C53.7608 11.0825 53.5802 11.758 53.5802 12.4795C53.5802 13.2009 53.7608 13.8765 54.1219 14.5061C54.4959 15.1226 54.9924 15.6211 55.6115 16.0015C56.2305 16.3687 56.8947 16.5524 57.604 16.5524Z"/>
<path d="M80.3388 2.12993V16.8869H79.7004V3.07438L72.8522 17.1623L66.0427 2.89729V16.8869H65.4044V2.12993H66.3136L72.8522 15.8244L79.4489 2.12993H80.3388Z"/>
<path d="M87.8014 17.2017C86.9244 17.2017 86.1312 16.9853 85.4219 16.5524C84.7126 16.1064 84.158 15.5227 83.7582 14.8012C83.3584 14.0667 83.1585 13.2731 83.1585 12.4204C83.1585 11.5809 83.3584 10.8005 83.7582 10.079C84.1709 9.35755 84.7255 8.78695 85.4219 8.3672C86.1312 7.93433 86.9179 7.71789 87.782 7.71789C88.6332 7.71789 89.407 7.93433 90.1034 8.3672C90.8127 8.78695 91.3673 9.35755 91.7671 10.079C92.1669 10.8005 92.3668 11.5809 92.3668 12.4204C92.3668 13.2993 92.1734 14.106 91.7865 14.8406C91.3996 15.562 90.8579 16.1392 90.1615 16.5721C89.4779 16.9918 88.6912 17.2017 87.8014 17.2017ZM87.8014 16.6508C88.5365 16.6508 89.2071 16.4606 89.8132 16.0802C90.4194 15.6998 90.8901 15.1947 91.2254 14.5651C91.5737 13.9224 91.7478 13.2206 91.7478 12.4598C91.7478 11.7121 91.5737 11.0169 91.2254 10.3741C90.8772 9.7314 90.4 9.21982 89.7939 8.83942C89.1878 8.45902 88.5171 8.26882 87.782 8.26882C87.0469 8.26882 86.3698 8.46558 85.7508 8.8591C85.1446 9.2395 84.661 9.75107 84.2999 10.3938C83.9517 11.0366 83.7776 11.7318 83.7776 12.4795C83.7776 13.2272 83.9517 13.9224 84.2999 14.5651C84.661 15.1947 85.1446 15.6998 85.7508 16.0802C86.3698 16.4606 87.0533 16.6508 87.8014 16.6508Z"/>
<path d="M103.167 16.3163V18.7954H102.625V16.8869H94.2679V18.7954H93.7263V16.3359H94.442L98.4852 7.77692L102.528 16.3163H103.167ZM101.909 16.3163L98.4852 9.07553L95.0611 16.3163H101.909Z"/>
</mask>
<path d="M1.16669 16.3163H2.23067L9.21427 1.79544L16.1979 16.3163H17.1264V18.7954H16.5267V16.8869H1.7277V18.7954H1.16669V16.3163ZM15.5401 16.3163L9.15623 3.15308L2.83037 16.3163H15.5401Z" fill="#1C4682"/>
<path d="M22.4523 16.5721C23.1229 16.5721 23.7613 16.395 24.3675 16.0408C24.9736 15.6866 25.4766 15.2013 25.8764 14.5848V15.5883C25.3992 16.1261 24.8769 16.5196 24.3094 16.7688C23.742 17.0049 23.0971 17.123 22.3749 17.123C21.5753 17.123 20.8209 16.9066 20.1115 16.4737C19.4151 16.0408 18.8541 15.4637 18.4285 14.7422C18.0158 14.0207 17.8095 13.2534 17.8095 12.4401C17.8095 11.5613 18.0158 10.7742 18.4285 10.079C18.8412 9.37067 19.4022 8.81975 20.1115 8.42623C20.8338 8.03271 21.6334 7.83595 22.5103 7.83595C23.8516 7.83595 24.993 8.37376 25.9344 9.44938L19.86 15.5489C20.2856 15.9031 20.6983 16.1654 21.0981 16.3359C21.4979 16.4934 21.9493 16.5721 22.4523 16.5721ZM18.4285 12.3811C18.4285 13.4698 18.7832 14.4011 19.4925 15.1751L25.1606 9.44938C24.735 9.06897 24.3223 8.80007 23.9225 8.64266C23.5227 8.47214 23.0455 8.38688 22.491 8.38688C21.7043 8.38688 21.0014 8.56396 20.3824 8.91813C19.7762 9.25918 19.299 9.7314 18.9508 10.3348C18.6026 10.9382 18.4285 11.6203 18.4285 12.3811Z" fill="#1C4682"/>
<path d="M35.6175 16.8869L31.9807 9.19359L28.3438 16.8869H27.7247L32 7.77692L36.2946 16.8869H35.6175Z" fill="#1C4682"/>
<path d="M39.028 8.03271H39.6471V11.0825H40.595C41.4977 11.0825 42.1942 11.3383 42.6842 11.8498C43.1743 12.3483 43.4194 13.0632 43.4194 13.9945C43.4194 14.5192 43.2904 15.0045 43.0325 15.4505C42.7745 15.8965 42.4263 16.2507 41.9878 16.513C41.5493 16.7623 41.0657 16.8869 40.5369 16.8869H39.028V8.03271ZM40.5563 16.3556C41.1882 16.3556 41.7234 16.1261 42.1619 15.667C42.6004 15.2079 42.8197 14.6504 42.8197 13.9945C42.8197 13.2337 42.6198 12.65 42.22 12.2434C41.8331 11.8236 41.2785 11.6137 40.5563 11.6137H39.6471V16.3556H40.5563Z" fill="#1C4682"/>
<path d="M47.4237 8.60331H44.0963V8.05238H51.3701V8.60331H48.0427V16.8869H47.4237V8.60331Z" fill="#1C4682"/>
<path d="M57.5653 17.1033C56.74 17.1033 55.9726 16.8934 55.2633 16.4737C54.5539 16.0539 53.9929 15.4899 53.5802 14.7816C53.1675 14.0601 52.9612 13.2862 52.9612 12.4598C52.9612 11.6334 53.1675 10.866 53.5802 10.1577C53.9929 9.43626 54.5539 8.86566 55.2633 8.4459C55.9726 8.02615 56.74 7.81627 57.5653 7.81627C58.4036 7.81627 59.1968 8.04583 59.9448 8.50493C60.6928 8.95092 61.2151 9.53464 61.5118 10.2561V8.03271H62.1308V16.8869H61.5118V14.6832C61.1635 15.4177 60.6219 16.008 59.8868 16.454C59.1645 16.8869 58.3907 17.1033 57.5653 17.1033ZM57.604 16.5524C58.3134 16.5524 58.9711 16.3687 59.5772 16.0015C60.1834 15.6211 60.6606 15.1226 61.0088 14.5061C61.3699 13.8765 61.5504 13.1944 61.5504 12.4598C61.5504 11.7383 61.3699 11.0628 61.0088 10.4332C60.6477 9.80354 60.164 9.30509 59.5579 8.9378C58.9517 8.5574 58.294 8.3672 57.5847 8.3672C56.8754 8.3672 56.2112 8.5574 55.5921 8.9378C54.986 9.3182 54.4959 9.82322 54.1219 10.4528C53.7608 11.0825 53.5802 11.758 53.5802 12.4795C53.5802 13.2009 53.7608 13.8765 54.1219 14.5061C54.4959 15.1226 54.9924 15.6211 55.6115 16.0015C56.2305 16.3687 56.8947 16.5524 57.604 16.5524Z" fill="#1C4682"/>
<path d="M80.3388 2.12993V16.8869H79.7004V3.07438L72.8522 17.1623L66.0427 2.89729V16.8869H65.4044V2.12993H66.3136L72.8522 15.8244L79.4489 2.12993H80.3388Z" fill="#1C4682"/>
<path d="M87.8014 17.2017C86.9244 17.2017 86.1312 16.9853 85.4219 16.5524C84.7126 16.1064 84.158 15.5227 83.7582 14.8012C83.3584 14.0667 83.1585 13.2731 83.1585 12.4204C83.1585 11.5809 83.3584 10.8005 83.7582 10.079C84.1709 9.35755 84.7255 8.78695 85.4219 8.3672C86.1312 7.93433 86.9179 7.71789 87.782 7.71789C88.6332 7.71789 89.407 7.93433 90.1034 8.3672C90.8127 8.78695 91.3673 9.35755 91.7671 10.079C92.1669 10.8005 92.3668 11.5809 92.3668 12.4204C92.3668 13.2993 92.1734 14.106 91.7865 14.8406C91.3996 15.562 90.8579 16.1392 90.1615 16.5721C89.4779 16.9918 88.6912 17.2017 87.8014 17.2017ZM87.8014 16.6508C88.5365 16.6508 89.2071 16.4606 89.8132 16.0802C90.4194 15.6998 90.8901 15.1947 91.2254 14.5651C91.5737 13.9224 91.7478 13.2206 91.7478 12.4598C91.7478 11.7121 91.5737 11.0169 91.2254 10.3741C90.8772 9.7314 90.4 9.21982 89.7939 8.83942C89.1878 8.45902 88.5171 8.26882 87.782 8.26882C87.0469 8.26882 86.3698 8.46558 85.7508 8.8591C85.1446 9.2395 84.661 9.75107 84.2999 10.3938C83.9517 11.0366 83.7776 11.7318 83.7776 12.4795C83.7776 13.2272 83.9517 13.9224 84.2999 14.5651C84.661 15.1947 85.1446 15.6998 85.7508 16.0802C86.3698 16.4606 87.0533 16.6508 87.8014 16.6508Z" fill="#1C4682"/>
<path d="M103.167 16.3163V18.7954H102.625V16.8869H94.2679V18.7954H93.7263V16.3359H94.442L98.4852 7.77692L102.528 16.3163H103.167ZM101.909 16.3163L98.4852 9.07553L95.0611 16.3163H101.909Z" fill="#1C4682"/>
<path d="M1.16669 16.3163H2.23067L9.21427 1.79544L16.1979 16.3163H17.1264V18.7954H16.5267V16.8869H1.7277V18.7954H1.16669V16.3163ZM15.5401 16.3163L9.15623 3.15308L2.83037 16.3163H15.5401Z" stroke="#1C4682" stroke-width="1.2" mask="url(#path-1-outside-1_1335_1959)"/>
<path d="M22.4523 16.5721C23.1229 16.5721 23.7613 16.395 24.3675 16.0408C24.9736 15.6866 25.4766 15.2013 25.8764 14.5848V15.5883C25.3992 16.1261 24.8769 16.5196 24.3094 16.7688C23.742 17.0049 23.0971 17.123 22.3749 17.123C21.5753 17.123 20.8209 16.9066 20.1115 16.4737C19.4151 16.0408 18.8541 15.4637 18.4285 14.7422C18.0158 14.0207 17.8095 13.2534 17.8095 12.4401C17.8095 11.5613 18.0158 10.7742 18.4285 10.079C18.8412 9.37067 19.4022 8.81975 20.1115 8.42623C20.8338 8.03271 21.6334 7.83595 22.5103 7.83595C23.8516 7.83595 24.993 8.37376 25.9344 9.44938L19.86 15.5489C20.2856 15.9031 20.6983 16.1654 21.0981 16.3359C21.4979 16.4934 21.9493 16.5721 22.4523 16.5721ZM18.4285 12.3811C18.4285 13.4698 18.7832 14.4011 19.4925 15.1751L25.1606 9.44938C24.735 9.06897 24.3223 8.80007 23.9225 8.64266C23.5227 8.47214 23.0455 8.38688 22.491 8.38688C21.7043 8.38688 21.0014 8.56396 20.3824 8.91813C19.7762 9.25918 19.299 9.7314 18.9508 10.3348C18.6026 10.9382 18.4285 11.6203 18.4285 12.3811Z" stroke="#1C4682" stroke-width="1.2" mask="url(#path-1-outside-1_1335_1959)"/>
<path d="M35.6175 16.8869L31.9807 9.19359L28.3438 16.8869H27.7247L32 7.77692L36.2946 16.8869H35.6175Z" stroke="#1C4682" stroke-width="1.2" mask="url(#path-1-outside-1_1335_1959)"/>
<path d="M39.028 8.03271H39.6471V11.0825H40.595C41.4977 11.0825 42.1942 11.3383 42.6842 11.8498C43.1743 12.3483 43.4194 13.0632 43.4194 13.9945C43.4194 14.5192 43.2904 15.0045 43.0325 15.4505C42.7745 15.8965 42.4263 16.2507 41.9878 16.513C41.5493 16.7623 41.0657 16.8869 40.5369 16.8869H39.028V8.03271ZM40.5563 16.3556C41.1882 16.3556 41.7234 16.1261 42.1619 15.667C42.6004 15.2079 42.8197 14.6504 42.8197 13.9945C42.8197 13.2337 42.6198 12.65 42.22 12.2434C41.8331 11.8236 41.2785 11.6137 40.5563 11.6137H39.6471V16.3556H40.5563Z" stroke="#1C4682" stroke-width="1.2" mask="url(#path-1-outside-1_1335_1959)"/>
<path d="M47.4237 8.60331H44.0963V8.05238H51.3701V8.60331H48.0427V16.8869H47.4237V8.60331Z" stroke="#1C4682" stroke-width="1.2" mask="url(#path-1-outside-1_1335_1959)"/>
<path d="M57.5653 17.1033C56.74 17.1033 55.9726 16.8934 55.2633 16.4737C54.5539 16.0539 53.9929 15.4899 53.5802 14.7816C53.1675 14.0601 52.9612 13.2862 52.9612 12.4598C52.9612 11.6334 53.1675 10.866 53.5802 10.1577C53.9929 9.43626 54.5539 8.86566 55.2633 8.4459C55.9726 8.02615 56.74 7.81627 57.5653 7.81627C58.4036 7.81627 59.1968 8.04583 59.9448 8.50493C60.6928 8.95092 61.2151 9.53464 61.5118 10.2561V8.03271H62.1308V16.8869H61.5118V14.6832C61.1635 15.4177 60.6219 16.008 59.8868 16.454C59.1645 16.8869 58.3907 17.1033 57.5653 17.1033ZM57.604 16.5524C58.3134 16.5524 58.9711 16.3687 59.5772 16.0015C60.1834 15.6211 60.6606 15.1226 61.0088 14.5061C61.3699 13.8765 61.5504 13.1944 61.5504 12.4598C61.5504 11.7383 61.3699 11.0628 61.0088 10.4332C60.6477 9.80354 60.164 9.30509 59.5579 8.9378C58.9517 8.5574 58.294 8.3672 57.5847 8.3672C56.8754 8.3672 56.2112 8.5574 55.5921 8.9378C54.986 9.3182 54.4959 9.82322 54.1219 10.4528C53.7608 11.0825 53.5802 11.758 53.5802 12.4795C53.5802 13.2009 53.7608 13.8765 54.1219 14.5061C54.4959 15.1226 54.9924 15.6211 55.6115 16.0015C56.2305 16.3687 56.8947 16.5524 57.604 16.5524Z" stroke="#1C4682" stroke-width="1.2" mask="url(#path-1-outside-1_1335_1959)"/>
<path d="M80.3388 2.12993V16.8869H79.7004V3.07438L72.8522 17.1623L66.0427 2.89729V16.8869H65.4044V2.12993H66.3136L72.8522 15.8244L79.4489 2.12993H80.3388Z" stroke="#1C4682" stroke-width="1.2" mask="url(#path-1-outside-1_1335_1959)"/>
<path d="M87.8014 17.2017C86.9244 17.2017 86.1312 16.9853 85.4219 16.5524C84.7126 16.1064 84.158 15.5227 83.7582 14.8012C83.3584 14.0667 83.1585 13.2731 83.1585 12.4204C83.1585 11.5809 83.3584 10.8005 83.7582 10.079C84.1709 9.35755 84.7255 8.78695 85.4219 8.3672C86.1312 7.93433 86.9179 7.71789 87.782 7.71789C88.6332 7.71789 89.407 7.93433 90.1034 8.3672C90.8127 8.78695 91.3673 9.35755 91.7671 10.079C92.1669 10.8005 92.3668 11.5809 92.3668 12.4204C92.3668 13.2993 92.1734 14.106 91.7865 14.8406C91.3996 15.562 90.8579 16.1392 90.1615 16.5721C89.4779 16.9918 88.6912 17.2017 87.8014 17.2017ZM87.8014 16.6508C88.5365 16.6508 89.2071 16.4606 89.8132 16.0802C90.4194 15.6998 90.8901 15.1947 91.2254 14.5651C91.5737 13.9224 91.7478 13.2206 91.7478 12.4598C91.7478 11.7121 91.5737 11.0169 91.2254 10.3741C90.8772 9.7314 90.4 9.21982 89.7939 8.83942C89.1878 8.45902 88.5171 8.26882 87.782 8.26882C87.0469 8.26882 86.3698 8.46558 85.7508 8.8591C85.1446 9.2395 84.661 9.75107 84.2999 10.3938C83.9517 11.0366 83.7776 11.7318 83.7776 12.4795C83.7776 13.2272 83.9517 13.9224 84.2999 14.5651C84.661 15.1947 85.1446 15.6998 85.7508 16.0802C86.3698 16.4606 87.0533 16.6508 87.8014 16.6508Z" stroke="#1C4682" stroke-width="1.2" mask="url(#path-1-outside-1_1335_1959)"/>
<path d="M103.167 16.3163V18.7954H102.625V16.8869H94.2679V18.7954H93.7263V16.3359H94.442L98.4852 7.77692L102.528 16.3163H103.167ZM101.909 16.3163L98.4852 9.07553L95.0611 16.3163H101.909Z" stroke="#1C4682" stroke-width="1.2" mask="url(#path-1-outside-1_1335_1959)"/>
</svg>
