<svg width="102" height="18" viewBox="0 0 103 18" fill="none" xmlns="http://www.w3.org/2000/svg">
<mask id="path-1-outside-1_1335_1978" maskUnits="userSpaceOnUse" x="10.1667" y="0.204559" width="82" height="18" fill="black">
<rect fill="white" x="10.1667" y="0.204559" width="82" height="18"/>
<path d="M11.1667 1.20456H11.77C14.0196 1.20456 15.754 1.84425 16.9731 3.12362C18.2048 4.38994 18.8206 6.19803 18.8206 8.5479C18.8206 9.89255 18.5064 11.1262 17.878 12.2489C17.2496 13.3717 16.395 14.2594 15.3141 14.9121C14.2459 15.5649 13.0645 15.8912 11.77 15.8912H11.1667V1.20456ZM11.9208 15.2842C13.077 15.2842 14.1327 14.9905 15.0879 14.403C16.0431 13.8025 16.7972 12.9865 17.3502 11.9552C17.9157 10.9239 18.1985 9.78811 18.1985 8.5479C18.1985 6.3808 17.6518 4.71631 16.5584 3.55443C15.4775 2.37949 13.9317 1.79203 11.9208 1.79203H11.77V15.2842H11.9208Z"/>
<path d="M25.5928 15.5779C26.2463 15.5779 26.8685 15.4017 27.4592 15.0492C28.0499 14.6967 28.54 14.2137 28.9296 13.6001V14.5988C28.4646 15.1341 27.9556 15.5257 27.4026 15.7738C26.8496 16.0087 26.2212 16.1262 25.5174 16.1262C24.7382 16.1262 24.0029 15.9108 23.3117 15.48C22.633 15.0492 22.0863 14.4748 21.6716 13.7568C21.2694 13.0388 21.0683 12.2751 21.0683 11.4657C21.0683 10.591 21.2694 9.80769 21.6716 9.11579C22.0737 8.41083 22.6205 7.86252 23.3117 7.47088C24.0155 7.07923 24.7947 6.88341 25.6494 6.88341C26.9564 6.88341 28.0687 7.41866 28.9862 8.48915L23.0666 14.5597C23.4814 14.9121 23.8835 15.1732 24.2732 15.3429C24.6628 15.4996 25.1026 15.5779 25.5928 15.5779ZM21.6716 11.4069C21.6716 12.4905 22.0172 13.4174 22.7084 14.1876L28.2321 8.48915C27.8174 8.11057 27.4152 7.84294 27.0256 7.68628C26.636 7.51657 26.1709 7.43171 25.6305 7.43171C24.8639 7.43171 24.1789 7.60795 23.5756 7.96043C22.9849 8.29986 22.5199 8.76983 22.1806 9.37036C21.8412 9.97088 21.6716 10.6497 21.6716 11.4069Z"/>
<path d="M34.6611 16.0675C34.0704 16.0675 33.53 15.9304 33.0398 15.6563C32.5497 15.3691 32.1601 14.9709 31.871 14.4617C31.5819 13.9526 31.4374 13.3847 31.4374 12.7581V1.20456H32.0407V12.7581C32.0407 13.2803 32.1538 13.7503 32.38 14.168C32.6188 14.5858 32.9393 14.9187 33.3415 15.1667C33.7436 15.4017 34.1835 15.5192 34.6611 15.5192V16.0675Z"/>
<path d="M40.2114 16.0087C39.2814 16.0087 38.5084 15.715 37.8926 15.1275C37.2893 14.5401 36.9877 13.7307 36.9877 12.6993V3.53485H37.591V7.07923H40.1926V7.62754H37.591V12.6993C37.591 13.561 37.8361 14.2398 38.3262 14.7359C38.8289 15.2189 39.4573 15.4604 40.2114 15.4604V16.0087Z"/>
<path d="M46.3594 16.1066C45.555 16.1066 44.8073 15.8978 44.116 15.48C43.4248 15.0623 42.8781 14.5009 42.4759 13.7959C42.0737 13.0779 41.8726 12.3077 41.8726 11.4852C41.8726 10.6628 42.0737 9.89908 42.4759 9.19412C42.8781 8.4761 43.4248 7.90822 44.116 7.49046C44.8073 7.07271 45.555 6.86383 46.3594 6.86383C47.1763 6.86383 47.9493 7.09229 48.6782 7.54921C49.4072 7.99307 49.9162 8.57401 50.2052 9.29203V7.07923H50.8085V15.8912H50.2052V13.698C49.8659 14.4291 49.338 15.0166 48.6217 15.4604C47.9178 15.8912 47.1638 16.1066 46.3594 16.1066ZM46.3971 15.5583C47.0884 15.5583 47.7293 15.3756 48.32 15.01C48.9107 14.6315 49.3757 14.1354 49.7151 13.5218C50.067 12.8952 50.2429 12.2163 50.2429 11.4852C50.2429 10.7672 50.067 10.0949 49.7151 9.46827C49.3632 8.84163 48.8919 8.34555 48.3012 7.98002C47.7105 7.60143 47.0695 7.41213 46.3783 7.41213C45.687 7.41213 45.0398 7.60143 44.4365 7.98002C43.8458 8.35861 43.3682 8.86122 43.0037 9.48785C42.6518 10.1145 42.4759 10.7868 42.4759 11.5048C42.4759 12.2228 42.6518 12.8952 43.0037 13.5218C43.3682 14.1354 43.8521 14.6315 44.4553 15.01C45.0586 15.3756 45.7059 15.5583 46.3971 15.5583Z"/>
<path d="M68.5524 1.20456V15.8912H67.9303V2.14451L61.2567 16.1654L54.6207 1.96827V15.8912H53.9986V1.20456H54.8847L61.2567 14.8338L67.6852 1.20456H68.5524Z"/>
<path d="M75.8248 16.2046C74.9701 16.2046 74.1972 15.9892 73.506 15.5583C72.8147 15.1145 72.2743 14.5335 71.8847 13.8155C71.4951 13.0845 71.3003 12.2946 71.3003 11.4461C71.3003 10.6106 71.4951 9.8338 71.8847 9.11579C72.2869 8.39777 72.8273 7.82989 73.506 7.41213C74.1972 6.98132 74.9639 6.76592 75.8059 6.76592C76.6354 6.76592 77.3895 6.98132 78.0682 7.41213C78.7594 7.82989 79.2998 8.39777 79.6894 9.11579C80.0791 9.8338 80.2739 10.6106 80.2739 11.4461C80.2739 12.3207 80.0854 13.1236 79.7083 13.8547C79.3313 14.5727 78.8034 15.1471 78.1247 15.5779C77.4586 15.9957 76.692 16.2046 75.8248 16.2046ZM75.8248 15.6563C76.5412 15.6563 77.1947 15.467 77.7854 15.0884C78.3761 14.7098 78.8348 14.2072 79.1616 13.5805C79.5009 12.9409 79.6706 12.2424 79.6706 11.4852C79.6706 10.7411 79.5009 10.0492 79.1616 9.40952C78.8223 8.76983 78.3572 8.2607 77.7665 7.88211C77.1758 7.50352 76.5223 7.31422 75.8059 7.31422C75.0895 7.31422 74.4297 7.51004 73.8265 7.90169C73.2358 8.28028 72.7645 8.78942 72.4125 9.4291C72.0732 10.0688 71.9035 10.7607 71.9035 11.5048C71.9035 12.2489 72.0732 12.9409 72.4125 13.5805C72.7645 14.2072 73.2358 14.7098 73.8265 15.0884C74.4297 15.467 75.0958 15.6563 75.8248 15.6563Z"/>
<path d="M86.7176 16.1066C85.9007 16.1066 85.1466 15.8978 84.4553 15.48C83.7767 15.0623 83.2362 14.5009 82.8341 13.7959C82.4319 13.091 82.2308 12.3207 82.2308 11.4852C82.2308 10.6497 82.4319 9.87949 82.8341 9.17453C83.2362 8.46957 83.7767 7.90822 84.4553 7.49046C85.1466 7.07271 85.9007 6.86383 86.7176 6.86383C87.5094 6.86383 88.2635 7.08576 88.9798 7.52963C89.6962 7.96043 90.2241 8.52832 90.5634 9.23328V1.20456H91.1667V15.8912H90.5634V13.7568C90.1864 14.4617 89.6397 15.0296 88.9233 15.4604C88.2195 15.8912 87.4842 16.1066 86.7176 16.1066ZM86.6987 15.5583C87.39 15.5583 88.031 15.3756 88.6217 15.01C89.2249 14.6315 89.7025 14.1354 90.0544 13.5218C90.4189 12.8952 90.6011 12.2228 90.6011 11.5048C90.6011 10.7868 90.4189 10.1145 90.0544 9.48785C89.7025 8.86122 89.2249 8.35861 88.6217 7.98002C88.031 7.60143 87.39 7.41213 86.6987 7.41213C86.0075 7.41213 85.3665 7.60143 84.7758 7.98002C84.1851 8.34555 83.7138 8.84163 83.3619 9.46827C83.01 10.0949 82.8341 10.7672 82.8341 11.4852C82.8341 12.2163 83.0037 12.8952 83.3431 13.5218C83.695 14.1354 84.1663 14.6315 84.757 15.01C85.3602 15.3756 86.0075 15.5583 86.6987 15.5583Z"/>
</mask>
<path d="M11.1667 1.20456H11.77C14.0196 1.20456 15.754 1.84425 16.9731 3.12362C18.2048 4.38994 18.8206 6.19803 18.8206 8.5479C18.8206 9.89255 18.5064 11.1262 17.878 12.2489C17.2496 13.3717 16.395 14.2594 15.3141 14.9121C14.2459 15.5649 13.0645 15.8912 11.77 15.8912H11.1667V1.20456ZM11.9208 15.2842C13.077 15.2842 14.1327 14.9905 15.0879 14.403C16.0431 13.8025 16.7972 12.9865 17.3502 11.9552C17.9157 10.9239 18.1985 9.78811 18.1985 8.5479C18.1985 6.3808 17.6518 4.71631 16.5584 3.55443C15.4775 2.37949 13.9317 1.79203 11.9208 1.79203H11.77V15.2842H11.9208Z" fill="#B8D5EE"/>
<path d="M25.5928 15.5779C26.2463 15.5779 26.8685 15.4017 27.4592 15.0492C28.0499 14.6967 28.54 14.2137 28.9296 13.6001V14.5988C28.4646 15.1341 27.9556 15.5257 27.4026 15.7738C26.8496 16.0087 26.2212 16.1262 25.5174 16.1262C24.7382 16.1262 24.0029 15.9108 23.3117 15.48C22.633 15.0492 22.0863 14.4748 21.6716 13.7568C21.2694 13.0388 21.0683 12.2751 21.0683 11.4657C21.0683 10.591 21.2694 9.80769 21.6716 9.11579C22.0737 8.41083 22.6205 7.86252 23.3117 7.47088C24.0155 7.07923 24.7947 6.88341 25.6494 6.88341C26.9564 6.88341 28.0687 7.41866 28.9862 8.48915L23.0666 14.5597C23.4814 14.9121 23.8835 15.1732 24.2732 15.3429C24.6628 15.4996 25.1026 15.5779 25.5928 15.5779ZM21.6716 11.4069C21.6716 12.4905 22.0172 13.4174 22.7084 14.1876L28.2321 8.48915C27.8174 8.11057 27.4152 7.84294 27.0256 7.68628C26.636 7.51657 26.1709 7.43171 25.6305 7.43171C24.8639 7.43171 24.1789 7.60795 23.5756 7.96043C22.9849 8.29986 22.5199 8.76983 22.1806 9.37036C21.8412 9.97088 21.6716 10.6497 21.6716 11.4069Z" fill="#B8D5EE"/>
<path d="M34.6611 16.0675C34.0704 16.0675 33.53 15.9304 33.0398 15.6563C32.5497 15.3691 32.1601 14.9709 31.871 14.4617C31.5819 13.9526 31.4374 13.3847 31.4374 12.7581V1.20456H32.0407V12.7581C32.0407 13.2803 32.1538 13.7503 32.38 14.168C32.6188 14.5858 32.9393 14.9187 33.3415 15.1667C33.7436 15.4017 34.1835 15.5192 34.6611 15.5192V16.0675Z" fill="#B8D5EE"/>
<path d="M40.2114 16.0087C39.2814 16.0087 38.5084 15.715 37.8926 15.1275C37.2893 14.5401 36.9877 13.7307 36.9877 12.6993V3.53485H37.591V7.07923H40.1926V7.62754H37.591V12.6993C37.591 13.561 37.8361 14.2398 38.3262 14.7359C38.8289 15.2189 39.4573 15.4604 40.2114 15.4604V16.0087Z" fill="#B8D5EE"/>
<path d="M46.3594 16.1066C45.555 16.1066 44.8073 15.8978 44.116 15.48C43.4248 15.0623 42.8781 14.5009 42.4759 13.7959C42.0737 13.0779 41.8726 12.3077 41.8726 11.4852C41.8726 10.6628 42.0737 9.89908 42.4759 9.19412C42.8781 8.4761 43.4248 7.90822 44.116 7.49046C44.8073 7.07271 45.555 6.86383 46.3594 6.86383C47.1763 6.86383 47.9493 7.09229 48.6782 7.54921C49.4072 7.99307 49.9162 8.57401 50.2052 9.29203V7.07923H50.8085V15.8912H50.2052V13.698C49.8659 14.4291 49.338 15.0166 48.6217 15.4604C47.9178 15.8912 47.1638 16.1066 46.3594 16.1066ZM46.3971 15.5583C47.0884 15.5583 47.7293 15.3756 48.32 15.01C48.9107 14.6315 49.3757 14.1354 49.7151 13.5218C50.067 12.8952 50.2429 12.2163 50.2429 11.4852C50.2429 10.7672 50.067 10.0949 49.7151 9.46827C49.3632 8.84163 48.8919 8.34555 48.3012 7.98002C47.7105 7.60143 47.0695 7.41213 46.3783 7.41213C45.687 7.41213 45.0398 7.60143 44.4365 7.98002C43.8458 8.35861 43.3682 8.86122 43.0037 9.48785C42.6518 10.1145 42.4759 10.7868 42.4759 11.5048C42.4759 12.2228 42.6518 12.8952 43.0037 13.5218C43.3682 14.1354 43.8521 14.6315 44.4553 15.01C45.0586 15.3756 45.7059 15.5583 46.3971 15.5583Z" fill="#B8D5EE"/>
<path d="M68.5524 1.20456V15.8912H67.9303V2.14451L61.2567 16.1654L54.6207 1.96827V15.8912H53.9986V1.20456H54.8847L61.2567 14.8338L67.6852 1.20456H68.5524Z" fill="#B8D5EE"/>
<path d="M75.8248 16.2046C74.9701 16.2046 74.1972 15.9892 73.506 15.5583C72.8147 15.1145 72.2743 14.5335 71.8847 13.8155C71.4951 13.0845 71.3003 12.2946 71.3003 11.4461C71.3003 10.6106 71.4951 9.8338 71.8847 9.11579C72.2869 8.39777 72.8273 7.82989 73.506 7.41213C74.1972 6.98132 74.9639 6.76592 75.8059 6.76592C76.6354 6.76592 77.3895 6.98132 78.0682 7.41213C78.7594 7.82989 79.2998 8.39777 79.6894 9.11579C80.0791 9.8338 80.2739 10.6106 80.2739 11.4461C80.2739 12.3207 80.0854 13.1236 79.7083 13.8547C79.3313 14.5727 78.8034 15.1471 78.1247 15.5779C77.4586 15.9957 76.692 16.2046 75.8248 16.2046ZM75.8248 15.6563C76.5412 15.6563 77.1947 15.467 77.7854 15.0884C78.3761 14.7098 78.8348 14.2072 79.1616 13.5805C79.5009 12.9409 79.6706 12.2424 79.6706 11.4852C79.6706 10.7411 79.5009 10.0492 79.1616 9.40952C78.8223 8.76983 78.3572 8.2607 77.7665 7.88211C77.1758 7.50352 76.5223 7.31422 75.8059 7.31422C75.0895 7.31422 74.4297 7.51004 73.8265 7.90169C73.2358 8.28028 72.7645 8.78942 72.4125 9.4291C72.0732 10.0688 71.9035 10.7607 71.9035 11.5048C71.9035 12.2489 72.0732 12.9409 72.4125 13.5805C72.7645 14.2072 73.2358 14.7098 73.8265 15.0884C74.4297 15.467 75.0958 15.6563 75.8248 15.6563Z" fill="#B8D5EE"/>
<path d="M86.7176 16.1066C85.9007 16.1066 85.1466 15.8978 84.4553 15.48C83.7767 15.0623 83.2362 14.5009 82.8341 13.7959C82.4319 13.091 82.2308 12.3207 82.2308 11.4852C82.2308 10.6497 82.4319 9.87949 82.8341 9.17453C83.2362 8.46957 83.7767 7.90822 84.4553 7.49046C85.1466 7.07271 85.9007 6.86383 86.7176 6.86383C87.5094 6.86383 88.2635 7.08576 88.9798 7.52963C89.6962 7.96043 90.2241 8.52832 90.5634 9.23328V1.20456H91.1667V15.8912H90.5634V13.7568C90.1864 14.4617 89.6397 15.0296 88.9233 15.4604C88.2195 15.8912 87.4842 16.1066 86.7176 16.1066ZM86.6987 15.5583C87.39 15.5583 88.031 15.3756 88.6217 15.01C89.2249 14.6315 89.7025 14.1354 90.0544 13.5218C90.4189 12.8952 90.6011 12.2228 90.6011 11.5048C90.6011 10.7868 90.4189 10.1145 90.0544 9.48785C89.7025 8.86122 89.2249 8.35861 88.6217 7.98002C88.031 7.60143 87.39 7.41213 86.6987 7.41213C86.0075 7.41213 85.3665 7.60143 84.7758 7.98002C84.1851 8.34555 83.7138 8.84163 83.3619 9.46827C83.01 10.0949 82.8341 10.7672 82.8341 11.4852C82.8341 12.2163 83.0037 12.8952 83.3431 13.5218C83.695 14.1354 84.1663 14.6315 84.757 15.01C85.3602 15.3756 86.0075 15.5583 86.6987 15.5583Z" fill="#B8D5EE"/>
<path d="M11.1667 1.20456H11.77C14.0196 1.20456 15.754 1.84425 16.9731 3.12362C18.2048 4.38994 18.8206 6.19803 18.8206 8.5479C18.8206 9.89255 18.5064 11.1262 17.878 12.2489C17.2496 13.3717 16.395 14.2594 15.3141 14.9121C14.2459 15.5649 13.0645 15.8912 11.77 15.8912H11.1667V1.20456ZM11.9208 15.2842C13.077 15.2842 14.1327 14.9905 15.0879 14.403C16.0431 13.8025 16.7972 12.9865 17.3502 11.9552C17.9157 10.9239 18.1985 9.78811 18.1985 8.5479C18.1985 6.3808 17.6518 4.71631 16.5584 3.55443C15.4775 2.37949 13.9317 1.79203 11.9208 1.79203H11.77V15.2842H11.9208Z" stroke="#B8D5EE" stroke-width="1.2" mask="url(#path-1-outside-1_1335_1978)"/>
<path d="M25.5928 15.5779C26.2463 15.5779 26.8685 15.4017 27.4592 15.0492C28.0499 14.6967 28.54 14.2137 28.9296 13.6001V14.5988C28.4646 15.1341 27.9556 15.5257 27.4026 15.7738C26.8496 16.0087 26.2212 16.1262 25.5174 16.1262C24.7382 16.1262 24.0029 15.9108 23.3117 15.48C22.633 15.0492 22.0863 14.4748 21.6716 13.7568C21.2694 13.0388 21.0683 12.2751 21.0683 11.4657C21.0683 10.591 21.2694 9.80769 21.6716 9.11579C22.0737 8.41083 22.6205 7.86252 23.3117 7.47088C24.0155 7.07923 24.7947 6.88341 25.6494 6.88341C26.9564 6.88341 28.0687 7.41866 28.9862 8.48915L23.0666 14.5597C23.4814 14.9121 23.8835 15.1732 24.2732 15.3429C24.6628 15.4996 25.1026 15.5779 25.5928 15.5779ZM21.6716 11.4069C21.6716 12.4905 22.0172 13.4174 22.7084 14.1876L28.2321 8.48915C27.8174 8.11057 27.4152 7.84294 27.0256 7.68628C26.636 7.51657 26.1709 7.43171 25.6305 7.43171C24.8639 7.43171 24.1789 7.60795 23.5756 7.96043C22.9849 8.29986 22.5199 8.76983 22.1806 9.37036C21.8412 9.97088 21.6716 10.6497 21.6716 11.4069Z" stroke="#B8D5EE" stroke-width="1.2" mask="url(#path-1-outside-1_1335_1978)"/>
<path d="M34.6611 16.0675C34.0704 16.0675 33.53 15.9304 33.0398 15.6563C32.5497 15.3691 32.1601 14.9709 31.871 14.4617C31.5819 13.9526 31.4374 13.3847 31.4374 12.7581V1.20456H32.0407V12.7581C32.0407 13.2803 32.1538 13.7503 32.38 14.168C32.6188 14.5858 32.9393 14.9187 33.3415 15.1667C33.7436 15.4017 34.1835 15.5192 34.6611 15.5192V16.0675Z" stroke="#B8D5EE" stroke-width="1.2" mask="url(#path-1-outside-1_1335_1978)"/>
<path d="M40.2114 16.0087C39.2814 16.0087 38.5084 15.715 37.8926 15.1275C37.2893 14.5401 36.9877 13.7307 36.9877 12.6993V3.53485H37.591V7.07923H40.1926V7.62754H37.591V12.6993C37.591 13.561 37.8361 14.2398 38.3262 14.7359C38.8289 15.2189 39.4573 15.4604 40.2114 15.4604V16.0087Z" stroke="#B8D5EE" stroke-width="1.2" mask="url(#path-1-outside-1_1335_1978)"/>
<path d="M46.3594 16.1066C45.555 16.1066 44.8073 15.8978 44.116 15.48C43.4248 15.0623 42.8781 14.5009 42.4759 13.7959C42.0737 13.0779 41.8726 12.3077 41.8726 11.4852C41.8726 10.6628 42.0737 9.89908 42.4759 9.19412C42.8781 8.4761 43.4248 7.90822 44.116 7.49046C44.8073 7.07271 45.555 6.86383 46.3594 6.86383C47.1763 6.86383 47.9493 7.09229 48.6782 7.54921C49.4072 7.99307 49.9162 8.57401 50.2052 9.29203V7.07923H50.8085V15.8912H50.2052V13.698C49.8659 14.4291 49.338 15.0166 48.6217 15.4604C47.9178 15.8912 47.1638 16.1066 46.3594 16.1066ZM46.3971 15.5583C47.0884 15.5583 47.7293 15.3756 48.32 15.01C48.9107 14.6315 49.3757 14.1354 49.7151 13.5218C50.067 12.8952 50.2429 12.2163 50.2429 11.4852C50.2429 10.7672 50.067 10.0949 49.7151 9.46827C49.3632 8.84163 48.8919 8.34555 48.3012 7.98002C47.7105 7.60143 47.0695 7.41213 46.3783 7.41213C45.687 7.41213 45.0398 7.60143 44.4365 7.98002C43.8458 8.35861 43.3682 8.86122 43.0037 9.48785C42.6518 10.1145 42.4759 10.7868 42.4759 11.5048C42.4759 12.2228 42.6518 12.8952 43.0037 13.5218C43.3682 14.1354 43.8521 14.6315 44.4553 15.01C45.0586 15.3756 45.7059 15.5583 46.3971 15.5583Z" stroke="#B8D5EE" stroke-width="1.2" mask="url(#path-1-outside-1_1335_1978)"/>
<path d="M68.5524 1.20456V15.8912H67.9303V2.14451L61.2567 16.1654L54.6207 1.96827V15.8912H53.9986V1.20456H54.8847L61.2567 14.8338L67.6852 1.20456H68.5524Z" stroke="#B8D5EE" stroke-width="1.2" mask="url(#path-1-outside-1_1335_1978)"/>
<path d="M75.8248 16.2046C74.9701 16.2046 74.1972 15.9892 73.506 15.5583C72.8147 15.1145 72.2743 14.5335 71.8847 13.8155C71.4951 13.0845 71.3003 12.2946 71.3003 11.4461C71.3003 10.6106 71.4951 9.8338 71.8847 9.11579C72.2869 8.39777 72.8273 7.82989 73.506 7.41213C74.1972 6.98132 74.9639 6.76592 75.8059 6.76592C76.6354 6.76592 77.3895 6.98132 78.0682 7.41213C78.7594 7.82989 79.2998 8.39777 79.6894 9.11579C80.0791 9.8338 80.2739 10.6106 80.2739 11.4461C80.2739 12.3207 80.0854 13.1236 79.7083 13.8547C79.3313 14.5727 78.8034 15.1471 78.1247 15.5779C77.4586 15.9957 76.692 16.2046 75.8248 16.2046ZM75.8248 15.6563C76.5412 15.6563 77.1947 15.467 77.7854 15.0884C78.3761 14.7098 78.8348 14.2072 79.1616 13.5805C79.5009 12.9409 79.6706 12.2424 79.6706 11.4852C79.6706 10.7411 79.5009 10.0492 79.1616 9.40952C78.8223 8.76983 78.3572 8.2607 77.7665 7.88211C77.1758 7.50352 76.5223 7.31422 75.8059 7.31422C75.0895 7.31422 74.4297 7.51004 73.8265 7.90169C73.2358 8.28028 72.7645 8.78942 72.4125 9.4291C72.0732 10.0688 71.9035 10.7607 71.9035 11.5048C71.9035 12.2489 72.0732 12.9409 72.4125 13.5805C72.7645 14.2072 73.2358 14.7098 73.8265 15.0884C74.4297 15.467 75.0958 15.6563 75.8248 15.6563Z" stroke="#B8D5EE" stroke-width="1.2" mask="url(#path-1-outside-1_1335_1978)"/>
<path d="M86.7176 16.1066C85.9007 16.1066 85.1466 15.8978 84.4553 15.48C83.7767 15.0623 83.2362 14.5009 82.8341 13.7959C82.4319 13.091 82.2308 12.3207 82.2308 11.4852C82.2308 10.6497 82.4319 9.87949 82.8341 9.17453C83.2362 8.46957 83.7767 7.90822 84.4553 7.49046C85.1466 7.07271 85.9007 6.86383 86.7176 6.86383C87.5094 6.86383 88.2635 7.08576 88.9798 7.52963C89.6962 7.96043 90.2241 8.52832 90.5634 9.23328V1.20456H91.1667V15.8912H90.5634V13.7568C90.1864 14.4617 89.6397 15.0296 88.9233 15.4604C88.2195 15.8912 87.4842 16.1066 86.7176 16.1066ZM86.6987 15.5583C87.39 15.5583 88.031 15.3756 88.6217 15.01C89.2249 14.6315 89.7025 14.1354 90.0544 13.5218C90.4189 12.8952 90.6011 12.2228 90.6011 11.5048C90.6011 10.7868 90.4189 10.1145 90.0544 9.48785C89.7025 8.86122 89.2249 8.35861 88.6217 7.98002C88.031 7.60143 87.39 7.41213 86.6987 7.41213C86.0075 7.41213 85.3665 7.60143 84.7758 7.98002C84.1851 8.34555 83.7138 8.84163 83.3619 9.46827C83.01 10.0949 82.8341 10.7672 82.8341 11.4852C82.8341 12.2163 83.0037 12.8952 83.3431 13.5218C83.695 14.1354 84.1663 14.6315 84.757 15.01C85.3602 15.3756 86.0075 15.5583 86.6987 15.5583Z" stroke="#B8D5EE" stroke-width="1.2" mask="url(#path-1-outside-1_1335_1978)"/>
</svg>
