<svg width="102" height="18" viewBox="0 0 103 18" fill="none" xmlns="http://www.w3.org/2000/svg">
    <mask id="path-1-outside-1_1335_1962" maskUnits="userSpaceOnUse" x="10.1667" y="0.5" width="82" height="18"
          fill="black">
        <rect fill="white" x="10.1667" y="0.5" width="82" height="18"/>
        <path d="M11.1667 1.5H11.77C14.0196 1.5 15.754 2.13969 16.9731 3.41906C18.2048 4.68538 18.8206 6.49347 18.8206 8.84334C18.8206 10.188 18.5064 11.4217 17.878 12.5444C17.2496 13.6671 16.395 14.5548 15.3141 15.2076C14.2459 15.8603 13.0645 16.1867 11.77 16.1867H11.1667V1.5ZM11.9208 15.5796C13.077 15.5796 14.1327 15.2859 15.0879 14.6984C16.0431 14.0979 16.7972 13.282 17.3502 12.2507C17.9157 11.2193 18.1985 10.0836 18.1985 8.84334C18.1985 6.67624 17.6518 5.01175 16.5584 3.84987C15.4775 2.67494 13.9317 2.08747 11.9208 2.08747H11.77V15.5796H11.9208Z"/>
        <path d="M25.5928 15.8734C26.2463 15.8734 26.8685 15.6971 27.4592 15.3446C28.0499 14.9922 28.54 14.5091 28.9296 13.8956V14.8943C28.4646 15.4295 27.9556 15.8211 27.4026 16.0692C26.8496 16.3042 26.2212 16.4217 25.5174 16.4217C24.7382 16.4217 24.0029 16.2063 23.3117 15.7755C22.633 15.3446 22.0863 14.7702 21.6716 14.0522C21.2694 13.3342 21.0683 12.5705 21.0683 11.7611C21.0683 10.8864 21.2694 10.1031 21.6716 9.41123C22.0737 8.70627 22.6205 8.15796 23.3117 7.76632C24.0155 7.37467 24.7947 7.17885 25.6494 7.17885C26.9564 7.17885 28.0687 7.7141 28.9862 8.7846L23.0666 14.8551C23.4814 15.2076 23.8835 15.4687 24.2732 15.6384C24.6628 15.795 25.1026 15.8734 25.5928 15.8734ZM21.6716 11.7024C21.6716 12.7859 22.0172 13.7128 22.7084 14.483L28.2321 8.7846C27.8174 8.40601 27.4152 8.13838 27.0256 7.98172C26.636 7.81201 26.1709 7.72715 25.6305 7.72715C24.8639 7.72715 24.1789 7.90339 23.5756 8.25587C22.9849 8.5953 22.5199 9.06527 22.1806 9.6658C21.8412 10.2663 21.6716 10.9452 21.6716 11.7024Z"/>
        <path d="M34.6611 16.3629C34.0704 16.3629 33.53 16.2258 33.0398 15.9517C32.5497 15.6645 32.1601 15.2663 31.871 14.7572C31.5819 14.248 31.4374 13.6802 31.4374 13.0535V1.5H32.0407V13.0535C32.0407 13.5757 32.1538 14.0457 32.38 14.4634C32.6188 14.8812 32.9393 15.2141 33.3415 15.4621C33.7436 15.6971 34.1835 15.8146 34.6611 15.8146V16.3629Z"/>
        <path d="M40.2114 16.3042C39.2814 16.3042 38.5084 16.0104 37.8926 15.423C37.2893 14.8355 36.9877 14.0261 36.9877 12.9948V3.83029H37.591V7.37467H40.1926V7.92298H37.591V12.9948C37.591 13.8564 37.8361 14.5352 38.3262 15.0313C38.8289 15.5144 39.4573 15.7559 40.2114 15.7559V16.3042Z"/>
        <path d="M46.3594 16.4021C45.555 16.4021 44.8073 16.1932 44.116 15.7755C43.4248 15.3577 42.8781 14.7963 42.4759 14.0914C42.0737 13.3734 41.8726 12.6031 41.8726 11.7807C41.8726 10.9582 42.0737 10.1945 42.4759 9.48956C42.8781 8.77154 43.4248 8.20366 44.116 7.7859C44.8073 7.36815 45.555 7.15927 46.3594 7.15927C47.1763 7.15927 47.9493 7.38773 48.6782 7.84465C49.4072 8.28851 49.9162 8.86945 50.2052 9.58747V7.37467H50.8085V16.1867H50.2052V13.9935C49.8659 14.7245 49.338 15.312 48.6217 15.7559C47.9178 16.1867 47.1638 16.4021 46.3594 16.4021ZM46.3971 15.8538C47.0884 15.8538 47.7293 15.671 48.32 15.3055C48.9107 14.9269 49.3757 14.4308 49.7151 13.8172C50.067 13.1906 50.2429 12.5118 50.2429 11.7807C50.2429 11.0627 50.067 10.3903 49.7151 9.76371C49.3632 9.13708 48.8919 8.64099 48.3012 8.27546C47.7105 7.89687 47.0695 7.70757 46.3783 7.70757C45.687 7.70757 45.0398 7.89687 44.4365 8.27546C43.8458 8.65405 43.3682 9.15666 43.0037 9.78329C42.6518 10.4099 42.4759 11.0822 42.4759 11.8003C42.4759 12.5183 42.6518 13.1906 43.0037 13.8172C43.3682 14.4308 43.8521 14.9269 44.4553 15.3055C45.0586 15.671 45.7059 15.8538 46.3971 15.8538Z"/>
        <path d="M68.5524 1.5V16.1867H67.9303V2.43995L61.2567 16.4608L54.6207 2.26371V16.1867H53.9986V1.5H54.8847L61.2567 15.1292L67.6852 1.5H68.5524Z"/>
        <path d="M75.8248 16.5C74.9701 16.5 74.1972 16.2846 73.506 15.8538C72.8147 15.4099 72.2743 14.829 71.8847 14.111C71.4951 13.3799 71.3003 12.5901 71.3003 11.7415C71.3003 10.906 71.4951 10.1292 71.8847 9.41123C72.2869 8.69321 72.8273 8.12533 73.506 7.70757C74.1972 7.27676 74.9639 7.06136 75.8059 7.06136C76.6354 7.06136 77.3895 7.27676 78.0682 7.70757C78.7594 8.12533 79.2998 8.69321 79.6894 9.41123C80.0791 10.1292 80.2739 10.906 80.2739 11.7415C80.2739 12.6162 80.0854 13.4191 79.7083 14.1501C79.3313 14.8681 78.8034 15.4426 78.1247 15.8734C77.4586 16.2911 76.692 16.5 75.8248 16.5ZM75.8248 15.9517C76.5412 15.9517 77.1947 15.7624 77.7854 15.3838C78.3761 15.0052 78.8348 14.5026 79.1616 13.876C79.5009 13.2363 79.6706 12.5379 79.6706 11.7807C79.6706 11.0366 79.5009 10.3446 79.1616 9.70496C78.8223 9.06527 78.3572 8.55614 77.7665 8.17755C77.1758 7.79896 76.5223 7.60966 75.8059 7.60966C75.0895 7.60966 74.4297 7.80548 73.8265 8.19713C73.2358 8.57572 72.7645 9.08486 72.4125 9.72454C72.0732 10.3642 71.9035 11.0561 71.9035 11.8003C71.9035 12.5444 72.0732 13.2363 72.4125 13.876C72.7645 14.5026 73.2358 15.0052 73.8265 15.3838C74.4297 15.7624 75.0958 15.9517 75.8248 15.9517Z"/>
        <path d="M86.7176 16.4021C85.9007 16.4021 85.1466 16.1932 84.4553 15.7755C83.7767 15.3577 83.2362 14.7963 82.8341 14.0914C82.4319 13.3864 82.2308 12.6162 82.2308 11.7807C82.2308 10.9452 82.4319 10.1749 82.8341 9.46997C83.2362 8.76501 83.7767 8.20366 84.4553 7.7859C85.1466 7.36815 85.9007 7.15927 86.7176 7.15927C87.5094 7.15927 88.2635 7.3812 88.9798 7.82507C89.6962 8.25588 90.2241 8.82376 90.5634 9.52872V1.5H91.1667V16.1867H90.5634V14.0522C90.1864 14.7572 89.6397 15.3251 88.9233 15.7559C88.2195 16.1867 87.4842 16.4021 86.7176 16.4021ZM86.6987 15.8538C87.39 15.8538 88.031 15.671 88.6217 15.3055C89.2249 14.9269 89.7025 14.4308 90.0544 13.8172C90.4189 13.1906 90.6011 12.5183 90.6011 11.8003C90.6011 11.0822 90.4189 10.4099 90.0544 9.78329C89.7025 9.15666 89.2249 8.65405 88.6217 8.27546C88.031 7.89687 87.39 7.70757 86.6987 7.70757C86.0075 7.70757 85.3665 7.89687 84.7758 8.27546C84.1851 8.64099 83.7138 9.13708 83.3619 9.76371C83.01 10.3903 82.8341 11.0627 82.8341 11.7807C82.8341 12.5118 83.0037 13.1906 83.3431 13.8172C83.695 14.4308 84.1663 14.9269 84.757 15.3055C85.3602 15.671 86.0075 15.8538 86.6987 15.8538Z"/>
    </mask>
    <path d="M11.1667 1.5H11.77C14.0196 1.5 15.754 2.13969 16.9731 3.41906C18.2048 4.68538 18.8206 6.49347 18.8206 8.84334C18.8206 10.188 18.5064 11.4217 17.878 12.5444C17.2496 13.6671 16.395 14.5548 15.3141 15.2076C14.2459 15.8603 13.0645 16.1867 11.77 16.1867H11.1667V1.5ZM11.9208 15.5796C13.077 15.5796 14.1327 15.2859 15.0879 14.6984C16.0431 14.0979 16.7972 13.282 17.3502 12.2507C17.9157 11.2193 18.1985 10.0836 18.1985 8.84334C18.1985 6.67624 17.6518 5.01175 16.5584 3.84987C15.4775 2.67494 13.9317 2.08747 11.9208 2.08747H11.77V15.5796H11.9208Z"
          fill="#1C4682"/>
    <path d="M25.5928 15.8734C26.2463 15.8734 26.8685 15.6971 27.4592 15.3446C28.0499 14.9922 28.54 14.5091 28.9296 13.8956V14.8943C28.4646 15.4295 27.9556 15.8211 27.4026 16.0692C26.8496 16.3042 26.2212 16.4217 25.5174 16.4217C24.7382 16.4217 24.0029 16.2063 23.3117 15.7755C22.633 15.3446 22.0863 14.7702 21.6716 14.0522C21.2694 13.3342 21.0683 12.5705 21.0683 11.7611C21.0683 10.8864 21.2694 10.1031 21.6716 9.41123C22.0737 8.70627 22.6205 8.15796 23.3117 7.76632C24.0155 7.37467 24.7947 7.17885 25.6494 7.17885C26.9564 7.17885 28.0687 7.7141 28.9862 8.7846L23.0666 14.8551C23.4814 15.2076 23.8835 15.4687 24.2732 15.6384C24.6628 15.795 25.1026 15.8734 25.5928 15.8734ZM21.6716 11.7024C21.6716 12.7859 22.0172 13.7128 22.7084 14.483L28.2321 8.7846C27.8174 8.40601 27.4152 8.13838 27.0256 7.98172C26.636 7.81201 26.1709 7.72715 25.6305 7.72715C24.8639 7.72715 24.1789 7.90339 23.5756 8.25587C22.9849 8.5953 22.5199 9.06527 22.1806 9.6658C21.8412 10.2663 21.6716 10.9452 21.6716 11.7024Z"
          fill="#1C4682"/>
    <path d="M34.6611 16.3629C34.0704 16.3629 33.53 16.2258 33.0398 15.9517C32.5497 15.6645 32.1601 15.2663 31.871 14.7572C31.5819 14.248 31.4374 13.6802 31.4374 13.0535V1.5H32.0407V13.0535C32.0407 13.5757 32.1538 14.0457 32.38 14.4634C32.6188 14.8812 32.9393 15.2141 33.3415 15.4621C33.7436 15.6971 34.1835 15.8146 34.6611 15.8146V16.3629Z"
          fill="#1C4682"/>
    <path d="M40.2114 16.3042C39.2814 16.3042 38.5084 16.0104 37.8926 15.423C37.2893 14.8355 36.9877 14.0261 36.9877 12.9948V3.83029H37.591V7.37467H40.1926V7.92298H37.591V12.9948C37.591 13.8564 37.8361 14.5352 38.3262 15.0313C38.8289 15.5144 39.4573 15.7559 40.2114 15.7559V16.3042Z"
          fill="#1C4682"/>
    <path d="M46.3594 16.4021C45.555 16.4021 44.8073 16.1932 44.116 15.7755C43.4248 15.3577 42.8781 14.7963 42.4759 14.0914C42.0737 13.3734 41.8726 12.6031 41.8726 11.7807C41.8726 10.9582 42.0737 10.1945 42.4759 9.48956C42.8781 8.77154 43.4248 8.20366 44.116 7.7859C44.8073 7.36815 45.555 7.15927 46.3594 7.15927C47.1763 7.15927 47.9493 7.38773 48.6782 7.84465C49.4072 8.28851 49.9162 8.86945 50.2052 9.58747V7.37467H50.8085V16.1867H50.2052V13.9935C49.8659 14.7245 49.338 15.312 48.6217 15.7559C47.9178 16.1867 47.1638 16.4021 46.3594 16.4021ZM46.3971 15.8538C47.0884 15.8538 47.7293 15.671 48.32 15.3055C48.9107 14.9269 49.3757 14.4308 49.7151 13.8172C50.067 13.1906 50.2429 12.5118 50.2429 11.7807C50.2429 11.0627 50.067 10.3903 49.7151 9.76371C49.3632 9.13708 48.8919 8.64099 48.3012 8.27546C47.7105 7.89687 47.0695 7.70757 46.3783 7.70757C45.687 7.70757 45.0398 7.89687 44.4365 8.27546C43.8458 8.65405 43.3682 9.15666 43.0037 9.78329C42.6518 10.4099 42.4759 11.0822 42.4759 11.8003C42.4759 12.5183 42.6518 13.1906 43.0037 13.8172C43.3682 14.4308 43.8521 14.9269 44.4553 15.3055C45.0586 15.671 45.7059 15.8538 46.3971 15.8538Z"
          fill="#1C4682"/>
    <path d="M68.5524 1.5V16.1867H67.9303V2.43995L61.2567 16.4608L54.6207 2.26371V16.1867H53.9986V1.5H54.8847L61.2567 15.1292L67.6852 1.5H68.5524Z"
          fill="#1C4682"/>
    <path d="M75.8248 16.5C74.9701 16.5 74.1972 16.2846 73.506 15.8538C72.8147 15.4099 72.2743 14.829 71.8847 14.111C71.4951 13.3799 71.3003 12.5901 71.3003 11.7415C71.3003 10.906 71.4951 10.1292 71.8847 9.41123C72.2869 8.69321 72.8273 8.12533 73.506 7.70757C74.1972 7.27676 74.9639 7.06136 75.8059 7.06136C76.6354 7.06136 77.3895 7.27676 78.0682 7.70757C78.7594 8.12533 79.2998 8.69321 79.6894 9.41123C80.0791 10.1292 80.2739 10.906 80.2739 11.7415C80.2739 12.6162 80.0854 13.4191 79.7083 14.1501C79.3313 14.8681 78.8034 15.4426 78.1247 15.8734C77.4586 16.2911 76.692 16.5 75.8248 16.5ZM75.8248 15.9517C76.5412 15.9517 77.1947 15.7624 77.7854 15.3838C78.3761 15.0052 78.8348 14.5026 79.1616 13.876C79.5009 13.2363 79.6706 12.5379 79.6706 11.7807C79.6706 11.0366 79.5009 10.3446 79.1616 9.70496C78.8223 9.06527 78.3572 8.55614 77.7665 8.17755C77.1758 7.79896 76.5223 7.60966 75.8059 7.60966C75.0895 7.60966 74.4297 7.80548 73.8265 8.19713C73.2358 8.57572 72.7645 9.08486 72.4125 9.72454C72.0732 10.3642 71.9035 11.0561 71.9035 11.8003C71.9035 12.5444 72.0732 13.2363 72.4125 13.876C72.7645 14.5026 73.2358 15.0052 73.8265 15.3838C74.4297 15.7624 75.0958 15.9517 75.8248 15.9517Z"
          fill="#1C4682"/>
    <path d="M86.7176 16.4021C85.9007 16.4021 85.1466 16.1932 84.4553 15.7755C83.7767 15.3577 83.2362 14.7963 82.8341 14.0914C82.4319 13.3864 82.2308 12.6162 82.2308 11.7807C82.2308 10.9452 82.4319 10.1749 82.8341 9.46997C83.2362 8.76501 83.7767 8.20366 84.4553 7.7859C85.1466 7.36815 85.9007 7.15927 86.7176 7.15927C87.5094 7.15927 88.2635 7.3812 88.9798 7.82507C89.6962 8.25588 90.2241 8.82376 90.5634 9.52872V1.5H91.1667V16.1867H90.5634V14.0522C90.1864 14.7572 89.6397 15.3251 88.9233 15.7559C88.2195 16.1867 87.4842 16.4021 86.7176 16.4021ZM86.6987 15.8538C87.39 15.8538 88.031 15.671 88.6217 15.3055C89.2249 14.9269 89.7025 14.4308 90.0544 13.8172C90.4189 13.1906 90.6011 12.5183 90.6011 11.8003C90.6011 11.0822 90.4189 10.4099 90.0544 9.78329C89.7025 9.15666 89.2249 8.65405 88.6217 8.27546C88.031 7.89687 87.39 7.70757 86.6987 7.70757C86.0075 7.70757 85.3665 7.89687 84.7758 8.27546C84.1851 8.64099 83.7138 9.13708 83.3619 9.76371C83.01 10.3903 82.8341 11.0627 82.8341 11.7807C82.8341 12.5118 83.0037 13.1906 83.3431 13.8172C83.695 14.4308 84.1663 14.9269 84.757 15.3055C85.3602 15.671 86.0075 15.8538 86.6987 15.8538Z"
          fill="#1C4682"/>
    <path d="M11.1667 1.5H11.77C14.0196 1.5 15.754 2.13969 16.9731 3.41906C18.2048 4.68538 18.8206 6.49347 18.8206 8.84334C18.8206 10.188 18.5064 11.4217 17.878 12.5444C17.2496 13.6671 16.395 14.5548 15.3141 15.2076C14.2459 15.8603 13.0645 16.1867 11.77 16.1867H11.1667V1.5ZM11.9208 15.5796C13.077 15.5796 14.1327 15.2859 15.0879 14.6984C16.0431 14.0979 16.7972 13.282 17.3502 12.2507C17.9157 11.2193 18.1985 10.0836 18.1985 8.84334C18.1985 6.67624 17.6518 5.01175 16.5584 3.84987C15.4775 2.67494 13.9317 2.08747 11.9208 2.08747H11.77V15.5796H11.9208Z"
          stroke="#1C4682" stroke-width="1.2" mask="url(#path-1-outside-1_1335_1962)"/>
    <path d="M25.5928 15.8734C26.2463 15.8734 26.8685 15.6971 27.4592 15.3446C28.0499 14.9922 28.54 14.5091 28.9296 13.8956V14.8943C28.4646 15.4295 27.9556 15.8211 27.4026 16.0692C26.8496 16.3042 26.2212 16.4217 25.5174 16.4217C24.7382 16.4217 24.0029 16.2063 23.3117 15.7755C22.633 15.3446 22.0863 14.7702 21.6716 14.0522C21.2694 13.3342 21.0683 12.5705 21.0683 11.7611C21.0683 10.8864 21.2694 10.1031 21.6716 9.41123C22.0737 8.70627 22.6205 8.15796 23.3117 7.76632C24.0155 7.37467 24.7947 7.17885 25.6494 7.17885C26.9564 7.17885 28.0687 7.7141 28.9862 8.7846L23.0666 14.8551C23.4814 15.2076 23.8835 15.4687 24.2732 15.6384C24.6628 15.795 25.1026 15.8734 25.5928 15.8734ZM21.6716 11.7024C21.6716 12.7859 22.0172 13.7128 22.7084 14.483L28.2321 8.7846C27.8174 8.40601 27.4152 8.13838 27.0256 7.98172C26.636 7.81201 26.1709 7.72715 25.6305 7.72715C24.8639 7.72715 24.1789 7.90339 23.5756 8.25587C22.9849 8.5953 22.5199 9.06527 22.1806 9.6658C21.8412 10.2663 21.6716 10.9452 21.6716 11.7024Z"
          stroke="#1C4682" stroke-width="1.2" mask="url(#path-1-outside-1_1335_1962)"/>
    <path d="M34.6611 16.3629C34.0704 16.3629 33.53 16.2258 33.0398 15.9517C32.5497 15.6645 32.1601 15.2663 31.871 14.7572C31.5819 14.248 31.4374 13.6802 31.4374 13.0535V1.5H32.0407V13.0535C32.0407 13.5757 32.1538 14.0457 32.38 14.4634C32.6188 14.8812 32.9393 15.2141 33.3415 15.4621C33.7436 15.6971 34.1835 15.8146 34.6611 15.8146V16.3629Z"
          stroke="#1C4682" stroke-width="1.2" mask="url(#path-1-outside-1_1335_1962)"/>
    <path d="M40.2114 16.3042C39.2814 16.3042 38.5084 16.0104 37.8926 15.423C37.2893 14.8355 36.9877 14.0261 36.9877 12.9948V3.83029H37.591V7.37467H40.1926V7.92298H37.591V12.9948C37.591 13.8564 37.8361 14.5352 38.3262 15.0313C38.8289 15.5144 39.4573 15.7559 40.2114 15.7559V16.3042Z"
          stroke="#1C4682" stroke-width="1.2" mask="url(#path-1-outside-1_1335_1962)"/>
    <path d="M46.3594 16.4021C45.555 16.4021 44.8073 16.1932 44.116 15.7755C43.4248 15.3577 42.8781 14.7963 42.4759 14.0914C42.0737 13.3734 41.8726 12.6031 41.8726 11.7807C41.8726 10.9582 42.0737 10.1945 42.4759 9.48956C42.8781 8.77154 43.4248 8.20366 44.116 7.7859C44.8073 7.36815 45.555 7.15927 46.3594 7.15927C47.1763 7.15927 47.9493 7.38773 48.6782 7.84465C49.4072 8.28851 49.9162 8.86945 50.2052 9.58747V7.37467H50.8085V16.1867H50.2052V13.9935C49.8659 14.7245 49.338 15.312 48.6217 15.7559C47.9178 16.1867 47.1638 16.4021 46.3594 16.4021ZM46.3971 15.8538C47.0884 15.8538 47.7293 15.671 48.32 15.3055C48.9107 14.9269 49.3757 14.4308 49.7151 13.8172C50.067 13.1906 50.2429 12.5118 50.2429 11.7807C50.2429 11.0627 50.067 10.3903 49.7151 9.76371C49.3632 9.13708 48.8919 8.64099 48.3012 8.27546C47.7105 7.89687 47.0695 7.70757 46.3783 7.70757C45.687 7.70757 45.0398 7.89687 44.4365 8.27546C43.8458 8.65405 43.3682 9.15666 43.0037 9.78329C42.6518 10.4099 42.4759 11.0822 42.4759 11.8003C42.4759 12.5183 42.6518 13.1906 43.0037 13.8172C43.3682 14.4308 43.8521 14.9269 44.4553 15.3055C45.0586 15.671 45.7059 15.8538 46.3971 15.8538Z"
          stroke="#1C4682" stroke-width="1.2" mask="url(#path-1-outside-1_1335_1962)"/>
    <path d="M68.5524 1.5V16.1867H67.9303V2.43995L61.2567 16.4608L54.6207 2.26371V16.1867H53.9986V1.5H54.8847L61.2567 15.1292L67.6852 1.5H68.5524Z"
          stroke="#1C4682" stroke-width="1.2" mask="url(#path-1-outside-1_1335_1962)"/>
    <path d="M75.8248 16.5C74.9701 16.5 74.1972 16.2846 73.506 15.8538C72.8147 15.4099 72.2743 14.829 71.8847 14.111C71.4951 13.3799 71.3003 12.5901 71.3003 11.7415C71.3003 10.906 71.4951 10.1292 71.8847 9.41123C72.2869 8.69321 72.8273 8.12533 73.506 7.70757C74.1972 7.27676 74.9639 7.06136 75.8059 7.06136C76.6354 7.06136 77.3895 7.27676 78.0682 7.70757C78.7594 8.12533 79.2998 8.69321 79.6894 9.41123C80.0791 10.1292 80.2739 10.906 80.2739 11.7415C80.2739 12.6162 80.0854 13.4191 79.7083 14.1501C79.3313 14.8681 78.8034 15.4426 78.1247 15.8734C77.4586 16.2911 76.692 16.5 75.8248 16.5ZM75.8248 15.9517C76.5412 15.9517 77.1947 15.7624 77.7854 15.3838C78.3761 15.0052 78.8348 14.5026 79.1616 13.876C79.5009 13.2363 79.6706 12.5379 79.6706 11.7807C79.6706 11.0366 79.5009 10.3446 79.1616 9.70496C78.8223 9.06527 78.3572 8.55614 77.7665 8.17755C77.1758 7.79896 76.5223 7.60966 75.8059 7.60966C75.0895 7.60966 74.4297 7.80548 73.8265 8.19713C73.2358 8.57572 72.7645 9.08486 72.4125 9.72454C72.0732 10.3642 71.9035 11.0561 71.9035 11.8003C71.9035 12.5444 72.0732 13.2363 72.4125 13.876C72.7645 14.5026 73.2358 15.0052 73.8265 15.3838C74.4297 15.7624 75.0958 15.9517 75.8248 15.9517Z"
          stroke="#1C4682" stroke-width="1.2" mask="url(#path-1-outside-1_1335_1962)"/>
    <path d="M86.7176 16.4021C85.9007 16.4021 85.1466 16.1932 84.4553 15.7755C83.7767 15.3577 83.2362 14.7963 82.8341 14.0914C82.4319 13.3864 82.2308 12.6162 82.2308 11.7807C82.2308 10.9452 82.4319 10.1749 82.8341 9.46997C83.2362 8.76501 83.7767 8.20366 84.4553 7.7859C85.1466 7.36815 85.9007 7.15927 86.7176 7.15927C87.5094 7.15927 88.2635 7.3812 88.9798 7.82507C89.6962 8.25588 90.2241 8.82376 90.5634 9.52872V1.5H91.1667V16.1867H90.5634V14.0522C90.1864 14.7572 89.6397 15.3251 88.9233 15.7559C88.2195 16.1867 87.4842 16.4021 86.7176 16.4021ZM86.6987 15.8538C87.39 15.8538 88.031 15.671 88.6217 15.3055C89.2249 14.9269 89.7025 14.4308 90.0544 13.8172C90.4189 13.1906 90.6011 12.5183 90.6011 11.8003C90.6011 11.0822 90.4189 10.4099 90.0544 9.78329C89.7025 9.15666 89.2249 8.65405 88.6217 8.27546C88.031 7.89687 87.39 7.70757 86.6987 7.70757C86.0075 7.70757 85.3665 7.89687 84.7758 8.27546C84.1851 8.64099 83.7138 9.13708 83.3619 9.76371C83.01 10.3903 82.8341 11.0627 82.8341 11.7807C82.8341 12.5118 83.0037 13.1906 83.3431 13.8172C83.695 14.4308 84.1663 14.9269 84.757 15.3055C85.3602 15.671 86.0075 15.8538 86.6987 15.8538Z"
          stroke="#1C4682" stroke-width="1.2" mask="url(#path-1-outside-1_1335_1962)"/>
</svg>
