<svg width="23" height="28" viewBox="0 0 23 28" fill="none" xmlns="http://www.w3.org/2000/svg">
<path d="M21.8475 15.7006C22.0789 15.5796 22.2694 14.2382 22.0406 14.1129L22.0119 12.1724L21.4613 11.3925L11.0961 5.71803L0.730824 0.0435917C0.50458 -0.0802653 0.221777 0.0745565 0.221777 0.32227V6.68337C0.221777 6.79891 0.285618 7.10879 0.391449 7.16606L18.5519 17.246C18.6546 17.3015 18.7804 17.3024 18.8839 17.2483L22.148 15.5421L21.8475 15.7006Z" fill="#F19710"/>
<path d="M22.0406 12.3488C22.0406 12.0147 21.7869 11.6894 21.5998 11.4949C21.4895 11.3802 21.3068 11.3652 21.1633 11.4435L14.2884 15.1933L7.5308 18.7677C7.27335 18.9039 6.95114 18.7342 6.95114 18.4624V14.224C6.95114 14.1031 6.88337 13.9906 6.77156 13.9259L1.18385 10.6933C1.13567 10.6655 1.08134 10.6477 1.02475 10.6413L0.433685 10.5743C0.203329 10.5483 2.09808e-05 10.7124 2.09808e-05 10.9245V26.8145C2.09808e-05 26.8145 0.424919 27.2924 0.772366 27.5201C1.81583 28.2041 3.28218 27.9918 4.05484 27.8729C4.8275 27.7541 5.35132 27.6109 5.35132 27.6109L6.37188 27.2161L19.5055 20.2883L19.5085 20.2868C19.55 20.2654 20.8851 19.5797 21.0752 19.4603C21.0962 19.4471 21.1149 19.4361 21.1323 19.4259C21.2752 19.3422 21.3313 19.3093 21.8475 18.5232C22.3254 17.7954 22.1462 14.4258 22.0688 12.9719C22.0524 12.6635 22.0406 12.4414 22.0406 12.3488Z" fill="#B8D5EE"/>
</svg>
