<svg width="23" height="28" viewBox="0 0 23 28" fill="none" xmlns="http://www.w3.org/2000/svg">
<path d="M22.0142 15.7006C22.2456 15.5796 22.4361 14.2382 22.2073 14.1129L22.1786 12.1724L21.628 11.3925L11.2628 5.71803L0.897511 0.0435917C0.671267 -0.0802653 0.388464 0.0745565 0.388464 0.32227V6.68337C0.388464 6.79891 0.452307 7.10879 0.558136 7.16606L18.7186 17.246C18.8213 17.3015 18.9471 17.3024 19.0506 17.2483L22.3147 15.5421L22.0142 15.7006Z" fill="#F19710"/>
<path d="M22.2073 12.3488C22.2073 12.0147 21.9536 11.6894 21.7665 11.4949C21.6562 11.3802 21.4735 11.3652 21.33 11.4435L14.4551 15.1933L7.69749 18.7677C7.44004 18.9039 7.11783 18.7342 7.11783 18.4624V14.224C7.11783 14.1031 7.05006 13.9906 6.93825 13.9259L1.35054 10.6933C1.30236 10.6655 1.24803 10.6477 1.19144 10.6413L0.600372 10.5743C0.370018 10.5483 0.166708 10.7124 0.166708 10.9245V26.8145C0.166708 26.8145 0.591606 27.2924 0.939053 27.5201C1.98252 28.2041 3.44887 27.9918 4.22153 27.8729C4.99419 27.7541 5.51801 27.6109 5.51801 27.6109L6.53857 27.2161L19.6722 20.2883L19.6751 20.2868C19.7167 20.2654 21.0518 19.5797 21.2419 19.4603C21.2629 19.4471 21.2816 19.4361 21.299 19.4259C21.4418 19.3422 21.498 19.3093 22.0142 18.5232C22.4921 17.7954 22.3128 14.4258 22.2355 12.9719C22.2191 12.6635 22.2073 12.4414 22.2073 12.3488Z" fill="#1C4682"/>
</svg>
